<svg xmlns="http://www.w3.org/2000/svg" xmlns:xlink="http://www.w3.org/1999/xlink" width="400" zoomAndPan="magnify" viewBox="0 0 300 89.999999" height="120" preserveAspectRatio="xMidYMid meet" version="1.0"><defs><g/><clipPath id="2d3e180b80"><path d="M 0 83 L 80.628906 83 L 80.628906 89.570312 L 0 89.570312 Z M 0 83 " clip-rule="nonzero"/></clipPath><clipPath id="9efd9244df"><path d="M 45 13.628906 L 80.628906 13.628906 L 80.628906 80 L 45 80 Z M 45 13.628906 " clip-rule="nonzero"/></clipPath></defs><g fill="#ffbd59" fill-opacity="1"><g transform="translate(75.47597, 65.43948)"><g/></g></g><g fill="#ffbd59" fill-opacity="1"><g transform="translate(97.771648, 65.43948)"><g><path d="M 21.992188 -5.480469 C 21.609375 -5.480469 21.097656 -5.546875 20.398438 -5.546875 L 18.101562 -5.546875 C 17.273438 -5.546875 16.507812 -5.546875 15.808594 -5.609375 L 14.085938 -5.609375 C 13.640625 -5.609375 13.257812 -5.609375 12.875 -5.738281 C 12.492188 -5.738281 12.175781 -5.863281 11.917969 -6.121094 C 11.601562 -6.246094 11.347656 -6.566406 11.21875 -6.949219 C 11.027344 -7.265625 10.964844 -7.777344 10.964844 -8.414062 C 10.964844 -8.925781 11.089844 -9.371094 11.347656 -9.753906 C 11.601562 -10.007812 11.917969 -10.261719 12.300781 -10.453125 C 12.683594 -10.582031 13.066406 -10.644531 13.511719 -10.707031 L 19.1875 -10.707031 C 20.714844 -10.707031 22.183594 -10.644531 23.710938 -10.644531 C 24.285156 -10.644531 24.921875 -10.582031 25.5625 -10.582031 C 26.132812 -10.515625 26.707031 -10.453125 27.28125 -10.328125 C 27.792969 -10.136719 28.300781 -9.878906 28.8125 -9.625 C 29.195312 -9.242188 29.578125 -8.796875 29.832031 -8.222656 C 30.214844 -7.332031 30.40625 -6.566406 30.46875 -5.800781 C 30.46875 -5.035156 30.339844 -4.269531 30.085938 -3.632812 C 29.578125 -2.359375 28.875 -1.464844 27.984375 -0.828125 C 26.964844 -0.128906 25.878906 0.382812 24.730469 0.765625 C 23.519531 1.082031 22.308594 1.339844 21.164062 1.53125 C 19.886719 1.65625 18.867188 1.785156 17.976562 1.976562 C 17.210938 2.101562 16.636719 2.292969 16.191406 2.550781 C 15.679688 2.804688 15.488281 3.125 15.488281 3.632812 C 15.488281 4.078125 15.679688 4.460938 16.0625 4.78125 C 16.445312 5.035156 16.957031 5.226562 17.59375 5.355469 C 18.675781 5.480469 20.015625 5.546875 21.546875 5.546875 C 23.011719 5.546875 24.351562 5.480469 25.496094 5.417969 C 26.390625 5.289062 27.15625 5.417969 27.792969 5.800781 C 28.367188 6.121094 28.683594 6.757812 28.683594 7.648438 C 28.683594 8.414062 28.429688 8.925781 27.984375 9.242188 C 27.472656 9.496094 26.835938 9.625 26.132812 9.753906 C 23.96875 9.878906 21.800781 9.878906 19.632812 9.878906 C 17.464844 9.816406 15.296875 9.625 13.132812 9.371094 C 12.492188 9.242188 11.917969 9.113281 11.347656 8.925781 C 10.707031 8.667969 10.136719 8.285156 9.6875 7.902344 C 9.179688 7.457031 8.796875 6.949219 8.542969 6.308594 C 8.222656 5.671875 8.09375 4.90625 8.222656 4.015625 C 8.414062 2.421875 8.988281 1.273438 9.945312 0.574219 C 10.835938 -0.191406 11.984375 -0.765625 13.511719 -1.273438 C 14.023438 -1.402344 14.722656 -1.59375 15.488281 -1.722656 C 16.253906 -1.785156 17.019531 -1.914062 17.910156 -2.039062 C 18.675781 -2.167969 19.503906 -2.292969 20.332031 -2.484375 C 21.097656 -2.613281 21.800781 -2.867188 22.4375 -3.25 C 22.949219 -3.503906 23.328125 -3.761719 23.519531 -4.015625 C 23.648438 -4.144531 23.648438 -4.335938 23.648438 -4.589844 C 23.648438 -5.035156 23.074219 -5.355469 21.992188 -5.480469 Z M 5.929688 -22.117188 C 4.90625 -22.054688 4.144531 -21.800781 3.503906 -21.355469 C 2.867188 -20.84375 2.550781 -20.015625 2.613281 -18.742188 C 2.613281 -17.71875 2.933594 -17.019531 3.441406 -16.574219 C 3.953125 -16.0625 4.589844 -15.746094 5.355469 -15.554688 C 6.882812 -15.105469 8.667969 -14.851562 10.773438 -14.851562 C 12.8125 -14.789062 14.980469 -14.851562 17.210938 -15.105469 C 19.378906 -15.296875 21.546875 -15.617188 23.585938 -16 C 25.625 -16.316406 27.34375 -16.699219 28.746094 -17.082031 C 30.148438 -17.464844 31.105469 -17.847656 31.617188 -18.359375 C 32.0625 -18.804688 32.316406 -19.441406 32.382812 -20.207031 C 32.382812 -20.84375 32.253906 -21.417969 32.0625 -21.925781 C 31.808594 -22.375 31.488281 -22.757812 31.105469 -23.136719 C 30.660156 -23.457031 30.214844 -23.710938 29.703125 -23.902344 C 29.195312 -24.03125 28.683594 -24.03125 28.175781 -24.03125 C 27.027344 -23.902344 25.6875 -23.777344 24.09375 -23.648438 C 22.4375 -23.394531 20.652344 -23.203125 18.742188 -23.011719 C 16.765625 -22.757812 14.722656 -22.566406 12.558594 -22.4375 C 10.328125 -22.246094 8.09375 -22.117188 5.929688 -22.117188 Z M 19.632812 -43.917969 C 21.671875 -43.664062 23.136719 -43.152344 24.160156 -42.515625 C 25.113281 -41.816406 25.753906 -40.605469 26.007812 -38.820312 C 26.199219 -37.417969 26.261719 -35.949219 26.261719 -34.292969 C 26.199219 -32.636719 25.878906 -30.914062 25.304688 -29.257812 C 24.988281 -28.367188 24.605469 -27.726562 24.160156 -27.34375 C 23.648438 -26.898438 22.949219 -26.707031 22.054688 -26.707031 C 21.417969 -26.707031 20.972656 -26.773438 20.714844 -27.027344 C 20.398438 -27.21875 20.207031 -27.472656 20.207031 -27.855469 C 20.078125 -28.175781 20.078125 -28.558594 20.144531 -28.9375 C 20.144531 -29.320312 20.207031 -29.640625 20.207031 -30.023438 L 20.207031 -34.230469 C 20.207031 -35.25 20.015625 -35.949219 19.632812 -36.332031 C 19.1875 -36.714844 18.484375 -36.90625 17.59375 -37.035156 C 16.699219 -37.097656 15.617188 -37.097656 14.46875 -36.972656 C 13.257812 -36.84375 12.238281 -36.90625 11.410156 -37.160156 C 10.515625 -37.351562 9.816406 -37.734375 9.304688 -38.375 C 8.796875 -38.882812 8.542969 -39.902344 8.542969 -41.433594 C 8.542969 -42.199219 8.605469 -42.835938 8.796875 -43.28125 C 8.925781 -43.664062 9.113281 -43.984375 9.371094 -44.171875 C 9.625 -44.300781 9.878906 -44.429688 10.261719 -44.429688 C 10.582031 -44.363281 10.898438 -44.300781 11.28125 -44.238281 C 12.558594 -43.917969 13.960938 -43.855469 15.488281 -43.984375 C 16.890625 -44.109375 18.292969 -44.046875 19.632812 -43.917969 Z M 19.632812 -43.917969 "/></g></g></g><g fill="#ffbd59" fill-opacity="1"><g transform="translate(137.289866, 65.43948)"><g><path d="M 32.316406 -42.390625 C 32.316406 -42.960938 32.316406 -43.664062 32.382812 -44.429688 C 32.382812 -45.195312 32.445312 -45.894531 32.636719 -46.597656 C 32.765625 -47.234375 33.019531 -47.871094 33.464844 -48.378906 C 33.847656 -48.828125 34.421875 -49.082031 35.1875 -49.144531 C 36.78125 -49.210938 37.925781 -48.761719 38.691406 -47.808594 C 39.394531 -46.789062 39.964844 -45.511719 40.476562 -43.917969 C 41.242188 -41.304688 41.816406 -38.117188 42.132812 -34.421875 C 42.390625 -30.660156 42.199219 -26.582031 41.558594 -22.183594 C 41.433594 -21.355469 41.242188 -20.589844 41.113281 -19.886719 C 40.921875 -19.121094 40.667969 -18.421875 40.285156 -17.910156 C 39.902344 -17.339844 39.394531 -16.890625 38.820312 -16.574219 C 38.183594 -16.191406 37.351562 -15.9375 36.398438 -15.9375 C 35.378906 -15.871094 34.613281 -16 34.101562 -16.382812 C 33.527344 -16.636719 33.144531 -17.082031 32.890625 -17.59375 C 32.574219 -18.101562 32.382812 -18.675781 32.316406 -19.3125 C 32.191406 -19.953125 32.191406 -20.523438 32.191406 -21.164062 C 32.125 -22.949219 32.125 -24.859375 32.125 -26.898438 C 32.125 -28.875 32.125 -30.851562 32.191406 -32.828125 C 32.191406 -34.738281 32.253906 -36.523438 32.316406 -38.246094 Z M 30.46875 -7.777344 C 30.023438 -7.777344 29.386719 -7.839844 28.621094 -7.839844 L 26.007812 -7.839844 C 25.050781 -7.839844 24.160156 -7.839844 23.328125 -7.902344 L 21.417969 -7.902344 C 20.398438 -7.902344 19.503906 -8.09375 18.867188 -8.476562 C 18.101562 -8.796875 17.785156 -9.6875 17.785156 -11.089844 C 17.785156 -11.730469 17.910156 -12.300781 18.230469 -12.683594 C 18.484375 -13.003906 18.867188 -13.257812 19.378906 -13.449219 C 19.761719 -13.578125 20.269531 -13.703125 20.78125 -13.769531 L 27.28125 -13.769531 C 29.003906 -13.769531 30.722656 -13.703125 32.445312 -13.703125 C 33.082031 -13.703125 33.785156 -13.640625 34.546875 -13.640625 C 35.1875 -13.578125 35.886719 -13.449219 36.523438 -13.320312 C 37.097656 -13.132812 37.671875 -12.875 38.183594 -12.492188 C 38.691406 -12.109375 39.074219 -11.539062 39.457031 -10.898438 C 39.839844 -9.878906 40.09375 -8.988281 40.15625 -8.160156 C 40.15625 -7.265625 39.964844 -6.375 39.710938 -5.609375 C 39.203125 -4.207031 38.375 -3.125 37.289062 -2.359375 C 36.140625 -1.59375 34.867188 -1.019531 33.59375 -0.636719 C 32.191406 -0.253906 30.851562 0 29.511719 0.191406 C 28.109375 0.320312 26.835938 0.511719 25.816406 0.765625 C 24.921875 0.890625 24.285156 1.148438 23.777344 1.464844 C 23.265625 1.722656 23.011719 2.101562 23.011719 2.675781 C 23.011719 3.1875 23.203125 3.632812 23.648438 4.015625 C 24.03125 4.335938 24.605469 4.527344 25.371094 4.652344 C 26.007812 4.71875 26.707031 4.78125 27.535156 4.84375 C 28.300781 4.84375 29.066406 4.90625 29.894531 4.90625 L 32.316406 4.90625 C 33.082031 4.84375 33.847656 4.78125 34.484375 4.71875 C 35.503906 4.589844 36.398438 4.78125 37.097656 5.164062 C 37.734375 5.546875 38.117188 6.246094 38.117188 7.265625 C 38.117188 8.160156 37.800781 8.734375 37.289062 9.113281 C 36.652344 9.371094 35.949219 9.5625 35.1875 9.6875 C 32.636719 9.816406 30.148438 9.878906 27.726562 9.878906 C 25.242188 9.753906 22.757812 9.5625 20.269531 9.242188 C 19.570312 9.113281 18.867188 8.988281 18.230469 8.734375 C 17.464844 8.414062 16.828125 8.03125 16.316406 7.585938 C 15.679688 7.074219 15.234375 6.4375 14.980469 5.738281 C 14.597656 4.972656 14.535156 4.144531 14.660156 3.125 C 14.851562 1.339844 15.488281 0 16.574219 -0.828125 C 17.59375 -1.65625 18.996094 -2.359375 20.714844 -2.933594 C 21.355469 -3.125 22.117188 -3.316406 23.011719 -3.441406 C 23.839844 -3.570312 24.730469 -3.695312 25.753906 -3.886719 C 26.644531 -4.015625 27.601562 -4.144531 28.558594 -4.398438 C 29.449219 -4.527344 30.214844 -4.84375 30.980469 -5.226562 C 31.550781 -5.546875 31.933594 -5.863281 32.191406 -6.121094 C 32.316406 -6.308594 32.382812 -6.5 32.382812 -6.757812 C 32.253906 -7.265625 31.617188 -7.648438 30.46875 -7.777344 Z M 17.464844 -37.800781 C 18.742188 -37.671875 19.824219 -37.480469 20.78125 -37.226562 C 21.671875 -36.972656 22.4375 -36.589844 23.074219 -36.140625 C 23.648438 -35.632812 24.160156 -34.996094 24.539062 -34.292969 C 24.859375 -33.527344 25.113281 -32.636719 25.304688 -31.550781 C 25.5625 -29.832031 25.625 -28.109375 25.625 -26.390625 C 25.5625 -24.605469 25.179688 -22.691406 24.476562 -20.652344 C 24.09375 -19.632812 23.648438 -18.804688 23.074219 -18.292969 C 22.4375 -17.71875 21.546875 -17.464844 20.460938 -17.464844 C 19.695312 -17.464844 19.121094 -17.59375 18.804688 -17.910156 C 18.421875 -18.167969 18.230469 -18.484375 18.167969 -18.929688 C 18.039062 -19.3125 18.039062 -19.761719 18.167969 -20.269531 C 18.167969 -20.714844 18.230469 -21.164062 18.230469 -21.546875 L 18.230469 -23.839844 C 18.230469 -24.605469 18.167969 -25.304688 18.167969 -25.941406 C 18.039062 -27.15625 17.785156 -27.984375 17.402344 -28.492188 C 16.890625 -28.9375 16.125 -29.257812 14.980469 -29.386719 L 13.195312 -29.386719 C 12.492188 -29.320312 11.792969 -29.320312 11.15625 -29.320312 C 10.453125 -29.257812 9.816406 -29.257812 9.179688 -29.320312 C 8.476562 -29.320312 7.902344 -29.386719 7.394531 -29.511719 C 6.820312 -29.640625 6.308594 -29.832031 5.929688 -30.085938 C 5.480469 -30.277344 5.097656 -30.597656 4.84375 -30.980469 C 4.527344 -31.363281 4.269531 -31.871094 4.144531 -32.507812 C 3.953125 -33.082031 3.886719 -33.847656 3.886719 -34.804688 C 3.886719 -35.757812 3.953125 -36.523438 4.207031 -37.035156 C 4.335938 -37.542969 4.589844 -37.863281 4.972656 -38.117188 C 5.226562 -38.308594 5.609375 -38.4375 6.054688 -38.4375 C 6.4375 -38.375 6.820312 -38.308594 7.265625 -38.246094 C 8.03125 -37.992188 8.859375 -37.925781 9.753906 -37.925781 C 10.582031 -37.863281 11.472656 -37.863281 12.367188 -37.925781 L 14.980469 -37.925781 C 15.808594 -37.925781 16.636719 -37.863281 17.464844 -37.800781 Z M 17.464844 -37.800781 "/></g></g></g><path fill="#7acbcd" d="M 16.160156 79.867188 L 2.398438 79.867188 C 1.183594 79.867188 0.1875 78.867188 0.1875 77.65625 L 0.1875 17.269531 C 0.1875 16.054688 1.183594 15.058594 2.398438 15.058594 L 16.160156 15.058594 C 17.375 15.058594 18.371094 16.054688 18.371094 17.269531 L 18.371094 77.65625 C 18.371094 78.867188 17.375 79.867188 16.160156 79.867188 Z M 16.160156 79.867188 " fill-opacity="1" fill-rule="nonzero"/><g clip-path="url(#2d3e180b80)"><path fill="#7acbcd" d="M 80.441406 84.285156 L 80.441406 88.355469 C 80.441406 89.050781 79.878906 89.570312 79.226562 89.570312 L 1.402344 89.570312 C 0.707031 89.570312 0.1875 89.007812 0.1875 88.355469 L 0.1875 84.285156 C 0.1875 83.589844 0.75 83.070312 1.402344 83.070312 L 79.226562 83.070312 C 79.921875 83.070312 80.441406 83.632812 80.441406 84.285156 Z M 80.441406 84.285156 " fill-opacity="1" fill-rule="nonzero"/></g><path fill="#ffbd59" d="M 39.378906 79.867188 L 25.621094 79.867188 C 24.40625 79.867188 23.40625 78.867188 23.40625 77.65625 L 23.40625 17.269531 C 23.40625 16.054688 24.40625 15.058594 25.621094 15.058594 L 39.378906 15.058594 C 40.597656 15.058594 41.59375 16.054688 41.59375 17.269531 L 41.59375 77.65625 C 41.550781 78.867188 40.597656 79.867188 39.378906 79.867188 Z M 39.378906 79.867188 " fill-opacity="1" fill-rule="nonzero"/><g clip-path="url(#9efd9244df)"><path fill="#ffbd59" d="M 78.878906 75.878906 L 65.683594 79.734375 C 64.511719 80.082031 63.296875 79.433594 62.949219 78.261719 L 45.847656 20.34375 C 45.5 19.175781 46.152344 17.960938 47.324219 17.613281 L 60.519531 13.714844 C 61.691406 13.367188 62.90625 14.019531 63.253906 15.1875 L 80.355469 73.152344 C 80.703125 74.320312 80.050781 75.535156 78.878906 75.878906 Z M 78.878906 75.878906 " fill-opacity="1" fill-rule="nonzero"/></g></svg>