<svg xmlns="http://www.w3.org/2000/svg" xmlns:xlink="http://www.w3.org/1999/xlink" width="400" zoomAndPan="magnify" viewBox="0 0 300 89.999999" height="120" preserveAspectRatio="xMidYMid meet" version="1.0"><defs><g/><clipPath id="dc62308bca"><path d="M 0 83 L 79.726562 83 L 79.726562 89.574219 L 0 89.574219 Z M 0 83 " clip-rule="nonzero"/></clipPath><clipPath id="4a98ded9c5"><path d="M 45 14.480469 L 79.726562 14.480469 L 79.726562 80 L 45 80 Z M 45 14.480469 " clip-rule="nonzero"/></clipPath></defs><g fill="#ffbd59" fill-opacity="1"><g transform="translate(73.878792, 57.780293)"><g/></g></g><g fill="#ffbd59" fill-opacity="1"><g transform="translate(95.925491, 57.780293)"><g><path d="M 21.746094 -5.421875 C 21.367188 -5.421875 20.863281 -5.484375 20.167969 -5.484375 L 17.902344 -5.484375 C 17.082031 -5.484375 16.324219 -5.484375 15.632812 -5.546875 L 13.929688 -5.546875 C 13.488281 -5.546875 13.109375 -5.546875 12.730469 -5.671875 C 12.355469 -5.671875 12.039062 -5.800781 11.785156 -6.050781 C 11.472656 -6.175781 11.21875 -6.492188 11.09375 -6.871094 C 10.90625 -7.183594 10.839844 -7.691406 10.839844 -8.320312 C 10.839844 -8.824219 10.96875 -9.265625 11.21875 -9.644531 C 11.472656 -9.894531 11.785156 -10.148438 12.164062 -10.335938 C 12.542969 -10.464844 12.921875 -10.527344 13.363281 -10.589844 L 18.972656 -10.589844 C 20.484375 -10.589844 21.933594 -10.527344 23.449219 -10.527344 C 24.015625 -10.527344 24.644531 -10.464844 25.277344 -10.464844 C 25.84375 -10.398438 26.410156 -10.335938 26.976562 -10.210938 C 27.480469 -10.023438 27.984375 -9.769531 28.488281 -9.519531 C 28.867188 -9.140625 29.246094 -8.699219 29.5 -8.132812 C 29.875 -7.25 30.066406 -6.492188 30.128906 -5.734375 C 30.128906 -4.980469 30.003906 -4.222656 29.75 -3.59375 C 29.246094 -2.332031 28.554688 -1.449219 27.671875 -0.820312 C 26.660156 -0.125 25.589844 0.378906 24.457031 0.757812 C 23.257812 1.070312 22.0625 1.324219 20.925781 1.511719 C 19.664062 1.640625 18.65625 1.765625 17.773438 1.953125 C 17.019531 2.078125 16.449219 2.269531 16.011719 2.519531 C 15.503906 2.773438 15.316406 3.089844 15.316406 3.59375 C 15.316406 4.035156 15.503906 4.414062 15.882812 4.726562 C 16.261719 4.980469 16.765625 5.167969 17.398438 5.292969 C 18.46875 5.421875 19.792969 5.484375 21.304688 5.484375 C 22.753906 5.484375 24.078125 5.421875 25.210938 5.359375 C 26.09375 5.230469 26.851562 5.359375 27.480469 5.734375 C 28.046875 6.050781 28.363281 6.679688 28.363281 7.5625 C 28.363281 8.320312 28.113281 8.824219 27.671875 9.140625 C 27.167969 9.390625 26.535156 9.519531 25.84375 9.644531 C 23.699219 9.769531 21.554688 9.769531 19.414062 9.769531 C 17.269531 9.707031 15.128906 9.519531 12.984375 9.265625 C 12.355469 9.140625 11.785156 9.011719 11.21875 8.824219 C 10.589844 8.570312 10.023438 8.195312 9.582031 7.816406 C 9.078125 7.375 8.699219 6.871094 8.445312 6.238281 C 8.132812 5.609375 8.003906 4.851562 8.132812 3.972656 C 8.320312 2.394531 8.886719 1.261719 9.832031 0.566406 C 10.714844 -0.1875 11.851562 -0.757812 13.363281 -1.261719 C 13.867188 -1.386719 14.558594 -1.574219 15.316406 -1.703125 C 16.074219 -1.765625 16.828125 -1.890625 17.710938 -2.015625 C 18.46875 -2.144531 19.289062 -2.269531 20.105469 -2.457031 C 20.863281 -2.585938 21.554688 -2.835938 22.1875 -3.214844 C 22.691406 -3.464844 23.070312 -3.71875 23.257812 -3.972656 C 23.382812 -4.097656 23.382812 -4.285156 23.382812 -4.539062 C 23.382812 -4.980469 22.816406 -5.292969 21.746094 -5.421875 Z M 5.863281 -21.871094 C 4.851562 -21.808594 4.097656 -21.554688 3.464844 -21.117188 C 2.835938 -20.609375 2.519531 -19.792969 2.585938 -18.53125 C 2.585938 -17.523438 2.898438 -16.828125 3.402344 -16.386719 C 3.90625 -15.882812 4.539062 -15.570312 5.292969 -15.378906 C 6.808594 -14.9375 8.570312 -14.6875 10.652344 -14.6875 C 12.667969 -14.625 14.8125 -14.6875 17.019531 -14.9375 C 19.160156 -15.128906 21.304688 -15.441406 23.320312 -15.820312 C 25.339844 -16.136719 27.039062 -16.515625 28.425781 -16.890625 C 29.8125 -17.269531 30.757812 -17.648438 31.261719 -18.152344 C 31.703125 -18.59375 31.957031 -19.222656 32.019531 -19.980469 C 32.019531 -20.609375 31.894531 -21.179688 31.703125 -21.683594 C 31.453125 -22.125 31.136719 -22.503906 30.757812 -22.878906 C 30.316406 -23.195312 29.875 -23.449219 29.371094 -23.636719 C 28.867188 -23.761719 28.363281 -23.761719 27.859375 -23.761719 C 26.726562 -23.636719 25.402344 -23.511719 23.824219 -23.382812 C 22.1875 -23.132812 20.421875 -22.941406 18.53125 -22.753906 C 16.578125 -22.503906 14.558594 -22.3125 12.417969 -22.1875 C 10.210938 -21.996094 8.003906 -21.871094 5.863281 -21.871094 Z M 19.414062 -43.429688 C 21.429688 -43.175781 22.878906 -42.671875 23.890625 -42.042969 C 24.835938 -41.347656 25.464844 -40.152344 25.714844 -38.386719 C 25.90625 -37 25.96875 -35.550781 25.96875 -33.910156 C 25.90625 -32.273438 25.589844 -30.570312 25.023438 -28.929688 C 24.707031 -28.046875 24.328125 -27.417969 23.890625 -27.039062 C 23.382812 -26.597656 22.691406 -26.410156 21.808594 -26.410156 C 21.179688 -26.410156 20.738281 -26.472656 20.484375 -26.726562 C 20.167969 -26.914062 19.980469 -27.167969 19.980469 -27.542969 C 19.855469 -27.859375 19.855469 -28.238281 19.917969 -28.617188 C 19.917969 -28.996094 19.980469 -29.308594 19.980469 -29.6875 L 19.980469 -33.847656 C 19.980469 -34.855469 19.792969 -35.550781 19.414062 -35.925781 C 18.972656 -36.304688 18.277344 -36.496094 17.398438 -36.621094 C 16.515625 -36.683594 15.441406 -36.683594 14.308594 -36.558594 C 13.109375 -36.433594 12.101562 -36.496094 11.28125 -36.746094 C 10.398438 -36.9375 9.707031 -37.3125 9.203125 -37.945312 C 8.699219 -38.449219 8.445312 -39.457031 8.445312 -40.96875 C 8.445312 -41.726562 8.507812 -42.355469 8.699219 -42.796875 C 8.824219 -43.175781 9.011719 -43.492188 9.265625 -43.679688 C 9.519531 -43.804688 9.769531 -43.933594 10.148438 -43.933594 C 10.464844 -43.871094 10.777344 -43.804688 11.15625 -43.742188 C 12.417969 -43.429688 13.804688 -43.367188 15.316406 -43.492188 C 16.703125 -43.617188 18.089844 -43.554688 19.414062 -43.429688 Z M 19.414062 -43.429688 "/></g></g></g><g fill="#ffbd59" fill-opacity="1"><g transform="translate(135.002405, 57.780293)"><g><path d="M 31.957031 -41.914062 C 31.957031 -42.484375 31.957031 -43.175781 32.019531 -43.933594 C 32.019531 -44.6875 32.082031 -45.382812 32.273438 -46.074219 C 32.398438 -46.707031 32.648438 -47.335938 33.089844 -47.839844 C 33.46875 -48.28125 34.035156 -48.535156 34.792969 -48.597656 C 36.367188 -48.660156 37.503906 -48.21875 38.261719 -47.273438 C 38.953125 -46.265625 39.519531 -45.003906 40.023438 -43.429688 C 40.78125 -40.84375 41.347656 -37.691406 41.664062 -34.035156 C 41.914062 -30.316406 41.726562 -26.285156 41.097656 -21.933594 C 40.96875 -21.117188 40.78125 -20.359375 40.65625 -19.664062 C 40.464844 -18.910156 40.214844 -18.214844 39.835938 -17.710938 C 39.457031 -17.144531 38.953125 -16.703125 38.386719 -16.386719 C 37.753906 -16.011719 36.9375 -15.757812 35.992188 -15.757812 C 34.980469 -15.695312 34.226562 -15.820312 33.722656 -16.199219 C 33.152344 -16.449219 32.777344 -16.890625 32.523438 -17.398438 C 32.207031 -17.902344 32.019531 -18.46875 31.957031 -19.097656 C 31.832031 -19.730469 31.832031 -20.296875 31.832031 -20.925781 C 31.769531 -22.691406 31.769531 -24.582031 31.769531 -26.597656 C 31.769531 -28.554688 31.769531 -30.507812 31.832031 -32.460938 C 31.832031 -34.351562 31.894531 -36.117188 31.957031 -37.820312 Z M 30.128906 -7.691406 C 29.6875 -7.691406 29.058594 -7.753906 28.300781 -7.753906 L 25.714844 -7.753906 C 24.769531 -7.753906 23.890625 -7.753906 23.070312 -7.816406 L 21.179688 -7.816406 C 20.167969 -7.816406 19.289062 -8.003906 18.65625 -8.382812 C 17.902344 -8.699219 17.585938 -9.582031 17.585938 -10.96875 C 17.585938 -11.597656 17.710938 -12.164062 18.027344 -12.542969 C 18.277344 -12.859375 18.65625 -13.109375 19.160156 -13.300781 C 19.539062 -13.425781 20.042969 -13.550781 20.546875 -13.613281 L 26.976562 -13.613281 C 28.679688 -13.613281 30.382812 -13.550781 32.082031 -13.550781 C 32.714844 -13.550781 33.40625 -13.488281 34.164062 -13.488281 C 34.792969 -13.425781 35.488281 -13.300781 36.117188 -13.171875 C 36.683594 -12.984375 37.25 -12.730469 37.753906 -12.355469 C 38.261719 -11.976562 38.636719 -11.410156 39.015625 -10.777344 C 39.394531 -9.769531 39.644531 -8.886719 39.710938 -8.066406 C 39.710938 -7.183594 39.519531 -6.304688 39.269531 -5.546875 C 38.765625 -4.160156 37.945312 -3.089844 36.875 -2.332031 C 35.738281 -1.574219 34.476562 -1.007812 33.21875 -0.628906 C 31.832031 -0.253906 30.507812 0 29.183594 0.1875 C 27.796875 0.316406 26.535156 0.503906 25.527344 0.757812 C 24.644531 0.882812 24.015625 1.132812 23.511719 1.449219 C 23.007812 1.703125 22.753906 2.078125 22.753906 2.648438 C 22.753906 3.152344 22.941406 3.59375 23.382812 3.972656 C 23.761719 4.285156 24.328125 4.476562 25.085938 4.601562 C 25.714844 4.664062 26.410156 4.726562 27.230469 4.789062 C 27.984375 4.789062 28.742188 4.851562 29.5625 4.851562 L 31.957031 4.851562 C 32.714844 4.789062 33.46875 4.726562 34.101562 4.664062 C 35.109375 4.539062 35.992188 4.726562 36.683594 5.105469 C 37.3125 5.484375 37.691406 6.175781 37.691406 7.183594 C 37.691406 8.066406 37.378906 8.636719 36.875 9.011719 C 36.242188 9.265625 35.550781 9.453125 34.792969 9.582031 C 32.273438 9.707031 29.8125 9.769531 27.417969 9.769531 C 24.960938 9.644531 22.503906 9.453125 20.042969 9.140625 C 19.351562 9.011719 18.65625 8.886719 18.027344 8.636719 C 17.269531 8.320312 16.640625 7.941406 16.136719 7.5 C 15.503906 6.996094 15.0625 6.367188 14.8125 5.671875 C 14.433594 4.917969 14.371094 4.097656 14.496094 3.089844 C 14.6875 1.324219 15.316406 0 16.386719 -0.820312 C 17.398438 -1.640625 18.785156 -2.332031 20.484375 -2.898438 C 21.117188 -3.089844 21.871094 -3.277344 22.753906 -3.402344 C 23.574219 -3.53125 24.457031 -3.65625 25.464844 -3.84375 C 26.347656 -3.972656 27.292969 -4.097656 28.238281 -4.347656 C 29.121094 -4.476562 29.875 -4.789062 30.632812 -5.167969 C 31.199219 -5.484375 31.578125 -5.800781 31.832031 -6.050781 C 31.957031 -6.238281 32.019531 -6.429688 32.019531 -6.679688 C 31.894531 -7.183594 31.261719 -7.5625 30.128906 -7.691406 Z M 17.269531 -37.378906 C 18.53125 -37.25 19.601562 -37.0625 20.546875 -36.808594 C 21.429688 -36.558594 22.1875 -36.179688 22.816406 -35.738281 C 23.382812 -35.234375 23.890625 -34.605469 24.265625 -33.910156 C 24.582031 -33.152344 24.835938 -32.273438 25.023438 -31.199219 C 25.277344 -29.5 25.339844 -27.796875 25.339844 -26.09375 C 25.277344 -24.328125 24.898438 -22.4375 24.203125 -20.421875 C 23.824219 -19.414062 23.382812 -18.59375 22.816406 -18.089844 C 22.1875 -17.523438 21.304688 -17.269531 20.234375 -17.269531 C 19.476562 -17.269531 18.910156 -17.398438 18.59375 -17.710938 C 18.214844 -17.964844 18.027344 -18.277344 17.964844 -18.71875 C 17.835938 -19.097656 17.835938 -19.539062 17.964844 -20.042969 C 17.964844 -20.484375 18.027344 -20.925781 18.027344 -21.304688 L 18.027344 -23.574219 C 18.027344 -24.328125 17.964844 -25.023438 17.964844 -25.652344 C 17.835938 -26.851562 17.585938 -27.671875 17.207031 -28.175781 C 16.703125 -28.617188 15.945312 -28.929688 14.8125 -29.058594 L 13.046875 -29.058594 C 12.355469 -28.996094 11.660156 -28.996094 11.03125 -28.996094 C 10.335938 -28.929688 9.707031 -28.929688 9.078125 -28.996094 C 8.382812 -28.996094 7.816406 -29.058594 7.3125 -29.183594 C 6.746094 -29.308594 6.238281 -29.5 5.863281 -29.75 C 5.421875 -29.941406 5.042969 -30.253906 4.789062 -30.632812 C 4.476562 -31.011719 4.222656 -31.515625 4.097656 -32.144531 C 3.90625 -32.714844 3.84375 -33.46875 3.84375 -34.414062 C 3.84375 -35.359375 3.90625 -36.117188 4.160156 -36.621094 C 4.285156 -37.125 4.539062 -37.441406 4.917969 -37.691406 C 5.167969 -37.882812 5.546875 -38.007812 5.988281 -38.007812 C 6.367188 -37.945312 6.746094 -37.882812 7.183594 -37.820312 C 7.941406 -37.566406 8.761719 -37.503906 9.644531 -37.503906 C 10.464844 -37.441406 11.34375 -37.441406 12.226562 -37.503906 L 14.8125 -37.503906 C 15.632812 -37.503906 16.449219 -37.441406 17.269531 -37.378906 Z M 17.269531 -37.378906 "/></g></g></g><g fill="#ffbd59" fill-opacity="1"><g transform="translate(105.095533, 87.412897)"><g><path d="M 8.4375 -4.71875 C 8.4375 -4.582031 8.429688 -4.429688 8.421875 -4.265625 C 8.410156 -4.097656 8.394531 -3.925781 8.375 -3.75 C 8.363281 -3.570312 8.347656 -3.40625 8.328125 -3.25 C 8.304688 -3.09375 8.289062 -2.96875 8.28125 -2.875 L 7.5 -2.78125 C 7.488281 -2.851562 7.476562 -2.945312 7.46875 -3.0625 C 7.46875 -3.175781 7.460938 -3.296875 7.453125 -3.421875 C 7.441406 -3.546875 7.429688 -3.671875 7.421875 -3.796875 C 7.421875 -3.921875 7.421875 -4.035156 7.421875 -4.140625 L 7.421875 -7.890625 C 7.421875 -8.109375 7.316406 -8.285156 7.109375 -8.421875 C 6.898438 -8.566406 6.5625 -8.695312 6.09375 -8.8125 L 6.265625 -9.21875 C 6.441406 -9.195312 6.632812 -9.171875 6.84375 -9.140625 C 7.050781 -9.109375 7.257812 -9.070312 7.46875 -9.03125 C 7.6875 -8.988281 7.890625 -8.945312 8.078125 -8.90625 C 8.265625 -8.875 8.425781 -8.847656 8.5625 -8.828125 C 8.550781 -8.765625 8.535156 -8.6875 8.515625 -8.59375 C 8.503906 -8.5 8.492188 -8.398438 8.484375 -8.296875 C 8.472656 -8.203125 8.460938 -8.113281 8.453125 -8.03125 C 8.441406 -7.957031 8.4375 -7.898438 8.4375 -7.859375 L 8.4375 -5.359375 C 8.75 -5.378906 9.097656 -5.410156 9.484375 -5.453125 C 9.878906 -5.503906 10.238281 -5.554688 10.5625 -5.609375 L 10.453125 -4.75 C 10.328125 -4.75 10.179688 -4.75 10.015625 -4.75 C 9.847656 -4.75 9.671875 -4.75 9.484375 -4.75 C 9.304688 -4.75 9.125 -4.75 8.9375 -4.75 C 8.757812 -4.75 8.59375 -4.75 8.4375 -4.75 Z M 8.234375 0 C 8.304688 -0.0078125 8.375 -0.015625 8.4375 -0.015625 C 8.5 -0.015625 8.554688 -0.0195312 8.609375 -0.03125 L 8.421875 0.765625 C 8.160156 0.734375 7.851562 0.710938 7.5 0.703125 C 7.15625 0.703125 6.796875 0.695312 6.421875 0.6875 C 6.046875 0.6875 5.671875 0.691406 5.296875 0.703125 C 4.929688 0.710938 4.59375 0.722656 4.28125 0.734375 C 4.257812 0.796875 4.242188 0.859375 4.234375 0.921875 C 4.222656 0.992188 4.210938 1.066406 4.203125 1.140625 L 3.53125 1.25 C 3.46875 1.007812 3.425781 0.804688 3.40625 0.640625 C 3.394531 0.484375 3.382812 0.3125 3.375 0.125 L 3.234375 -1.375 C 3.222656 -1.507812 3.207031 -1.613281 3.1875 -1.6875 C 3.164062 -1.769531 3.128906 -1.835938 3.078125 -1.890625 C 3.035156 -1.941406 2.96875 -1.988281 2.875 -2.03125 C 2.78125 -2.070312 2.648438 -2.113281 2.484375 -2.15625 L 2.6875 -2.53125 C 3.632812 -2.425781 4.597656 -2.382812 5.578125 -2.40625 C 6.554688 -2.425781 7.53125 -2.476562 8.5 -2.5625 C 8.46875 -2.375 8.4375 -2.171875 8.40625 -1.953125 C 8.382812 -1.734375 8.363281 -1.507812 8.34375 -1.28125 C 8.320312 -1.050781 8.300781 -0.828125 8.28125 -0.609375 C 8.257812 -0.390625 8.242188 -0.1875 8.234375 0 Z M 7.34375 -1.859375 C 7.125 -1.867188 6.875 -1.875 6.59375 -1.875 C 6.320312 -1.882812 6.046875 -1.882812 5.765625 -1.875 C 5.492188 -1.863281 5.222656 -1.851562 4.953125 -1.84375 C 4.691406 -1.832031 4.460938 -1.820312 4.265625 -1.8125 L 4.3125 -0.078125 L 4.3125 0.171875 C 4.78125 0.160156 5.28125 0.144531 5.8125 0.125 C 6.34375 0.113281 6.84375 0.0976562 7.3125 0.078125 Z M 5.921875 -4.546875 C 5.921875 -4.304688 5.863281 -4.078125 5.75 -3.859375 C 5.632812 -3.648438 5.472656 -3.46875 5.265625 -3.3125 C 5.066406 -3.164062 4.828125 -3.046875 4.546875 -2.953125 C 4.273438 -2.859375 3.976562 -2.8125 3.65625 -2.8125 C 3.34375 -2.8125 3.046875 -2.859375 2.765625 -2.953125 C 2.492188 -3.046875 2.253906 -3.171875 2.046875 -3.328125 C 1.847656 -3.484375 1.6875 -3.664062 1.5625 -3.875 C 1.445312 -4.09375 1.390625 -4.316406 1.390625 -4.546875 C 1.390625 -4.804688 1.445312 -5.039062 1.5625 -5.25 C 1.6875 -5.46875 1.847656 -5.65625 2.046875 -5.8125 C 2.253906 -5.976562 2.492188 -6.101562 2.765625 -6.1875 C 3.046875 -6.269531 3.34375 -6.3125 3.65625 -6.3125 C 3.988281 -6.3125 4.296875 -6.265625 4.578125 -6.171875 C 4.859375 -6.078125 5.097656 -5.945312 5.296875 -5.78125 C 5.492188 -5.613281 5.644531 -5.421875 5.75 -5.203125 C 5.863281 -4.992188 5.921875 -4.773438 5.921875 -4.546875 Z M 2.46875 -4.609375 C 2.46875 -4.441406 2.5 -4.28125 2.5625 -4.125 C 2.625 -3.976562 2.707031 -3.847656 2.8125 -3.734375 C 2.925781 -3.628906 3.050781 -3.539062 3.1875 -3.46875 C 3.332031 -3.40625 3.488281 -3.375 3.65625 -3.375 C 3.820312 -3.375 3.972656 -3.40625 4.109375 -3.46875 C 4.253906 -3.53125 4.378906 -3.613281 4.484375 -3.71875 C 4.597656 -3.832031 4.6875 -3.960938 4.75 -4.109375 C 4.8125 -4.265625 4.84375 -4.429688 4.84375 -4.609375 C 4.84375 -4.765625 4.8125 -4.914062 4.75 -5.0625 C 4.6875 -5.207031 4.601562 -5.335938 4.5 -5.453125 C 4.394531 -5.578125 4.269531 -5.671875 4.125 -5.734375 C 3.976562 -5.796875 3.820312 -5.828125 3.65625 -5.828125 C 3.320312 -5.828125 3.039062 -5.710938 2.8125 -5.484375 C 2.582031 -5.265625 2.46875 -4.972656 2.46875 -4.609375 Z M 6.6875 -6.71875 C 6.53125 -6.71875 6.332031 -6.71875 6.09375 -6.71875 C 5.851562 -6.71875 5.59375 -6.710938 5.3125 -6.703125 C 5.03125 -6.691406 4.742188 -6.679688 4.453125 -6.671875 C 4.160156 -6.671875 3.875 -6.664062 3.59375 -6.65625 C 3.320312 -6.644531 3.066406 -6.632812 2.828125 -6.625 C 2.597656 -6.625 2.410156 -6.617188 2.265625 -6.609375 C 2.179688 -6.597656 2.066406 -6.585938 1.921875 -6.578125 C 1.785156 -6.566406 1.640625 -6.550781 1.484375 -6.53125 C 1.328125 -6.519531 1.179688 -6.507812 1.046875 -6.5 C 0.910156 -6.488281 0.800781 -6.472656 0.71875 -6.453125 L 0.296875 -7.34375 C 0.390625 -7.320312 0.507812 -7.300781 0.65625 -7.28125 C 0.800781 -7.269531 0.945312 -7.253906 1.09375 -7.234375 C 1.25 -7.222656 1.398438 -7.210938 1.546875 -7.203125 C 1.691406 -7.191406 1.816406 -7.1875 1.921875 -7.1875 C 2.160156 -7.1875 2.484375 -7.191406 2.890625 -7.203125 C 3.304688 -7.210938 3.742188 -7.226562 4.203125 -7.25 C 4.671875 -7.28125 5.140625 -7.3125 5.609375 -7.34375 C 6.078125 -7.382812 6.488281 -7.4375 6.84375 -7.5 Z M 5.09375 -7.875 C 4.96875 -7.875 4.832031 -7.875 4.6875 -7.875 C 4.539062 -7.875 4.394531 -7.867188 4.25 -7.859375 C 4.113281 -7.859375 3.976562 -7.859375 3.84375 -7.859375 C 3.707031 -7.859375 3.59375 -7.859375 3.5 -7.859375 C 3.445312 -7.859375 3.375 -7.851562 3.28125 -7.84375 C 3.1875 -7.84375 3.082031 -7.835938 2.96875 -7.828125 C 2.851562 -7.828125 2.738281 -7.820312 2.625 -7.8125 C 2.507812 -7.800781 2.40625 -7.785156 2.3125 -7.765625 L 1.859375 -8.59375 C 1.953125 -8.570312 2.0625 -8.550781 2.1875 -8.53125 C 2.320312 -8.507812 2.457031 -8.488281 2.59375 -8.46875 C 2.738281 -8.445312 2.875 -8.429688 3 -8.421875 C 3.132812 -8.410156 3.25 -8.40625 3.34375 -8.40625 C 3.4375 -8.40625 3.554688 -8.40625 3.703125 -8.40625 C 3.859375 -8.414062 4.023438 -8.429688 4.203125 -8.453125 C 4.378906 -8.472656 4.554688 -8.492188 4.734375 -8.515625 C 4.921875 -8.535156 5.097656 -8.554688 5.265625 -8.578125 Z M 5.09375 -7.875 "/></g></g></g><g fill="#ffbd59" fill-opacity="1"><g transform="translate(116.18528, 87.412897)"><g><path d="M 5.28125 -4.03125 C 4.96875 -3.40625 4.597656 -2.835938 4.171875 -2.328125 C 3.753906 -1.828125 3.296875 -1.375 2.796875 -0.96875 L 2.53125 -1.25 C 2.875 -1.601562 3.1875 -1.992188 3.46875 -2.421875 C 3.757812 -2.847656 4.015625 -3.296875 4.234375 -3.765625 C 4.460938 -4.234375 4.65625 -4.703125 4.8125 -5.171875 C 4.96875 -5.648438 5.078125 -6.113281 5.140625 -6.5625 C 4.992188 -6.5625 4.832031 -6.550781 4.65625 -6.53125 C 4.488281 -6.507812 4.296875 -6.46875 4.078125 -6.40625 C 3.921875 -5.863281 3.726562 -5.363281 3.5 -4.90625 C 3.28125 -4.445312 3.03125 -4.015625 2.75 -3.609375 C 2.46875 -3.203125 2.15625 -2.820312 1.8125 -2.46875 C 1.476562 -2.125 1.113281 -1.796875 0.71875 -1.484375 L 0.453125 -1.765625 C 1.109375 -2.398438 1.660156 -3.125 2.109375 -3.9375 C 2.554688 -4.75 2.847656 -5.597656 2.984375 -6.484375 C 2.890625 -6.484375 2.765625 -6.476562 2.609375 -6.46875 C 2.460938 -6.457031 2.316406 -6.441406 2.171875 -6.421875 C 2.054688 -6.410156 1.898438 -6.390625 1.703125 -6.359375 C 1.515625 -6.335938 1.300781 -6.296875 1.0625 -6.234375 L 0.65625 -7.078125 C 0.851562 -7.035156 1.0625 -7.007812 1.28125 -7 C 1.507812 -6.988281 1.707031 -6.976562 1.875 -6.96875 C 2.007812 -6.96875 2.160156 -6.972656 2.328125 -6.984375 C 2.503906 -6.992188 2.675781 -7.007812 2.84375 -7.03125 C 3.019531 -7.0625 3.191406 -7.09375 3.359375 -7.125 C 3.535156 -7.164062 3.695312 -7.207031 3.84375 -7.25 L 4.078125 -7.03125 C 4.429688 -7.03125 4.773438 -7.054688 5.109375 -7.109375 C 5.441406 -7.160156 5.757812 -7.226562 6.0625 -7.3125 L 6.34375 -6.984375 C 6.132812 -6.015625 5.835938 -5.128906 5.453125 -4.328125 C 5.597656 -4.316406 5.742188 -4.304688 5.890625 -4.296875 C 6.046875 -4.285156 6.1875 -4.285156 6.3125 -4.296875 C 6.394531 -4.296875 6.472656 -4.296875 6.546875 -4.296875 C 6.617188 -4.296875 6.691406 -4.296875 6.765625 -4.296875 L 6.765625 -7.453125 C 6.765625 -7.554688 6.75 -7.648438 6.71875 -7.734375 C 6.6875 -7.828125 6.628906 -7.910156 6.546875 -7.984375 C 6.460938 -8.054688 6.347656 -8.117188 6.203125 -8.171875 C 6.054688 -8.234375 5.878906 -8.296875 5.671875 -8.359375 L 5.859375 -8.734375 C 6.203125 -8.691406 6.550781 -8.632812 6.90625 -8.5625 C 7.257812 -8.5 7.578125 -8.429688 7.859375 -8.359375 C 7.835938 -8.285156 7.820312 -8.203125 7.8125 -8.109375 C 7.800781 -8.015625 7.785156 -7.921875 7.765625 -7.828125 C 7.753906 -7.734375 7.742188 -7.648438 7.734375 -7.578125 C 7.734375 -7.503906 7.734375 -7.445312 7.734375 -7.40625 L 7.734375 -2.25 C 7.734375 -2.03125 7.722656 -1.773438 7.703125 -1.484375 C 7.691406 -1.203125 7.675781 -0.914062 7.65625 -0.625 C 7.632812 -0.332031 7.609375 -0.0546875 7.578125 0.203125 C 7.554688 0.472656 7.535156 0.695312 7.515625 0.875 L 6.84375 0.96875 C 6.84375 0.84375 6.832031 0.679688 6.8125 0.484375 C 6.800781 0.296875 6.789062 0.09375 6.78125 -0.125 C 6.78125 -0.34375 6.773438 -0.566406 6.765625 -0.796875 C 6.765625 -1.023438 6.765625 -1.25 6.765625 -1.46875 L 6.765625 -3.765625 C 6.546875 -3.742188 6.328125 -3.71875 6.109375 -3.6875 C 5.890625 -3.65625 5.695312 -3.617188 5.53125 -3.578125 Z M 7.4375 -9.21875 C 7.800781 -9.164062 8.179688 -9.097656 8.578125 -9.015625 C 8.972656 -8.941406 9.3125 -8.875 9.59375 -8.8125 C 9.570312 -8.75 9.550781 -8.671875 9.53125 -8.578125 C 9.519531 -8.484375 9.507812 -8.390625 9.5 -8.296875 C 9.488281 -8.203125 9.476562 -8.113281 9.46875 -8.03125 C 9.457031 -7.957031 9.453125 -7.898438 9.453125 -7.859375 L 9.453125 -1.890625 C 9.453125 -1.660156 9.445312 -1.398438 9.4375 -1.109375 C 9.425781 -0.828125 9.410156 -0.539062 9.390625 -0.25 C 9.378906 0.03125 9.363281 0.300781 9.34375 0.5625 C 9.320312 0.832031 9.300781 1.054688 9.28125 1.234375 L 8.53125 1.34375 C 8.53125 1.21875 8.523438 1.054688 8.515625 0.859375 C 8.503906 0.671875 8.492188 0.46875 8.484375 0.25 C 8.472656 0.03125 8.46875 -0.191406 8.46875 -0.421875 C 8.46875 -0.648438 8.46875 -0.867188 8.46875 -1.078125 L 8.46875 -7.890625 C 8.46875 -7.992188 8.445312 -8.09375 8.40625 -8.1875 C 8.375 -8.28125 8.3125 -8.363281 8.21875 -8.4375 C 8.125 -8.507812 8 -8.578125 7.84375 -8.640625 C 7.6875 -8.703125 7.492188 -8.757812 7.265625 -8.8125 Z M 7.4375 -9.21875 "/></g></g></g><g fill="#ffbd59" fill-opacity="1"><g transform="translate(127.275027, 87.412897)"><g/></g></g><g fill="#ffbd59" fill-opacity="1"><g transform="translate(131.153515, 87.412897)"><g><path d="M 5.390625 -4.671875 C 5.691406 -5.109375 5.941406 -5.546875 6.140625 -5.984375 C 6.347656 -6.429688 6.515625 -6.847656 6.640625 -7.234375 C 6.671875 -7.316406 6.679688 -7.390625 6.671875 -7.453125 C 6.671875 -7.515625 6.65625 -7.566406 6.625 -7.609375 C 6.5625 -7.660156 6.460938 -7.722656 6.328125 -7.796875 C 6.191406 -7.878906 6.0625 -7.945312 5.9375 -8 L 6.140625 -8.34375 C 6.253906 -8.3125 6.382812 -8.273438 6.53125 -8.234375 C 6.6875 -8.191406 6.847656 -8.144531 7.015625 -8.09375 C 7.179688 -8.050781 7.347656 -8.003906 7.515625 -7.953125 C 7.679688 -7.910156 7.832031 -7.867188 7.96875 -7.828125 C 7.875 -7.484375 7.75 -7.144531 7.59375 -6.8125 C 7.445312 -6.476562 7.273438 -6.144531 7.078125 -5.8125 C 7.265625 -5.644531 7.476562 -5.472656 7.71875 -5.296875 C 7.957031 -5.117188 8.195312 -4.953125 8.4375 -4.796875 C 8.6875 -4.640625 8.925781 -4.492188 9.15625 -4.359375 C 9.394531 -4.234375 9.601562 -4.132812 9.78125 -4.0625 L 9 -3.328125 L 6.78125 -5.359375 C 6.4375 -4.816406 6.039062 -4.320312 5.59375 -3.875 C 5.144531 -3.425781 4.675781 -3.035156 4.1875 -2.703125 L 3.90625 -2.953125 C 4.09375 -3.117188 4.269531 -3.285156 4.4375 -3.453125 C 4.601562 -3.628906 4.753906 -3.8125 4.890625 -4 L 3.515625 -5.28125 C 3.171875 -4.800781 2.789062 -4.367188 2.375 -3.984375 C 1.96875 -3.609375 1.53125 -3.265625 1.0625 -2.953125 L 0.765625 -3.21875 C 1.046875 -3.4375 1.328125 -3.703125 1.609375 -4.015625 C 1.890625 -4.328125 2.148438 -4.65625 2.390625 -5 C 2.640625 -5.351562 2.851562 -5.707031 3.03125 -6.0625 C 3.21875 -6.414062 3.351562 -6.75 3.4375 -7.0625 C 3.488281 -7.1875 3.507812 -7.28125 3.5 -7.34375 C 3.488281 -7.40625 3.445312 -7.457031 3.375 -7.5 C 3.320312 -7.53125 3.238281 -7.578125 3.125 -7.640625 C 3.007812 -7.710938 2.90625 -7.773438 2.8125 -7.828125 L 3.015625 -8.15625 C 3.117188 -8.125 3.242188 -8.085938 3.390625 -8.046875 C 3.546875 -8.015625 3.703125 -7.972656 3.859375 -7.921875 C 4.023438 -7.878906 4.1875 -7.832031 4.34375 -7.78125 C 4.5 -7.738281 4.632812 -7.703125 4.75 -7.671875 C 4.632812 -7.304688 4.5 -6.960938 4.34375 -6.640625 C 4.1875 -6.328125 4.015625 -6.023438 3.828125 -5.734375 C 4.054688 -5.546875 4.300781 -5.359375 4.5625 -5.171875 C 4.832031 -4.984375 5.109375 -4.816406 5.390625 -4.671875 Z M 10.15625 -0.515625 C 9.875 -0.535156 9.5 -0.546875 9.03125 -0.546875 C 8.570312 -0.554688 8.097656 -0.566406 7.609375 -0.578125 C 7.410156 -0.578125 7.164062 -0.570312 6.875 -0.5625 C 6.59375 -0.5625 6.28125 -0.554688 5.9375 -0.546875 C 5.601562 -0.535156 5.257812 -0.523438 4.90625 -0.515625 C 4.5625 -0.503906 4.226562 -0.492188 3.90625 -0.484375 C 3.59375 -0.472656 3.304688 -0.457031 3.046875 -0.4375 C 2.796875 -0.425781 2.597656 -0.414062 2.453125 -0.40625 C 2.171875 -0.394531 1.875 -0.375 1.5625 -0.34375 C 1.257812 -0.320312 0.972656 -0.296875 0.703125 -0.265625 L 0.359375 -1.21875 C 0.679688 -1.164062 1.023438 -1.128906 1.390625 -1.109375 C 1.753906 -1.085938 2.101562 -1.066406 2.4375 -1.046875 C 2.613281 -1.046875 2.835938 -1.046875 3.109375 -1.046875 C 3.378906 -1.046875 3.671875 -1.046875 3.984375 -1.046875 C 4.304688 -1.046875 4.632812 -1.050781 4.96875 -1.0625 C 5.300781 -1.070312 5.625 -1.082031 5.9375 -1.09375 C 6.25 -1.101562 6.539062 -1.113281 6.8125 -1.125 C 7.082031 -1.132812 7.300781 -1.140625 7.46875 -1.140625 C 7.957031 -1.171875 8.453125 -1.207031 8.953125 -1.25 C 9.453125 -1.300781 9.898438 -1.351562 10.296875 -1.40625 Z M 10.15625 -0.515625 "/></g></g></g><g fill="#ffbd59" fill-opacity="1"><g transform="translate(142.243261, 87.412897)"><g><path d="M 8.671875 -5.0625 C 8.234375 -5.070312 7.757812 -5.078125 7.25 -5.078125 C 6.738281 -5.078125 6.226562 -5.070312 5.71875 -5.0625 C 5.21875 -5.0625 4.742188 -5.050781 4.296875 -5.03125 C 3.847656 -5.007812 3.457031 -4.992188 3.125 -4.984375 C 2.875 -4.972656 2.691406 -5.046875 2.578125 -5.203125 C 2.472656 -5.359375 2.421875 -5.539062 2.421875 -5.75 L 2.421875 -7.34375 C 2.421875 -7.5 2.40625 -7.625 2.375 -7.71875 C 2.34375 -7.8125 2.289062 -7.890625 2.21875 -7.953125 C 2.144531 -8.023438 2.035156 -8.082031 1.890625 -8.125 C 1.753906 -8.175781 1.578125 -8.226562 1.359375 -8.28125 L 1.546875 -8.6875 C 1.648438 -8.675781 1.789062 -8.660156 1.96875 -8.640625 C 2.144531 -8.617188 2.328125 -8.59375 2.515625 -8.5625 C 2.703125 -8.539062 2.882812 -8.519531 3.0625 -8.5 C 3.25 -8.476562 3.398438 -8.457031 3.515625 -8.4375 C 3.492188 -8.351562 3.472656 -8.222656 3.453125 -8.046875 C 3.441406 -7.878906 3.4375 -7.726562 3.4375 -7.59375 L 3.4375 -5.984375 C 3.4375 -5.847656 3.460938 -5.75 3.515625 -5.6875 C 3.566406 -5.625 3.664062 -5.585938 3.8125 -5.578125 C 4.082031 -5.566406 4.429688 -5.570312 4.859375 -5.59375 C 5.296875 -5.613281 5.75 -5.640625 6.21875 -5.671875 C 6.6875 -5.703125 7.148438 -5.738281 7.609375 -5.78125 C 8.078125 -5.820312 8.476562 -5.867188 8.8125 -5.921875 Z M 10.3125 -3.0625 C 10.164062 -3.070312 9.992188 -3.078125 9.796875 -3.078125 C 9.609375 -3.085938 9.398438 -3.09375 9.171875 -3.09375 C 8.953125 -3.101562 8.722656 -3.109375 8.484375 -3.109375 C 8.253906 -3.117188 8.019531 -3.125 7.78125 -3.125 C 7.570312 -3.125 7.3125 -3.125 7 -3.125 C 6.695312 -3.125 6.363281 -3.117188 6 -3.109375 C 5.632812 -3.097656 5.257812 -3.085938 4.875 -3.078125 C 4.488281 -3.066406 4.125 -3.050781 3.78125 -3.03125 C 3.4375 -3.019531 3.128906 -3.007812 2.859375 -3 C 2.585938 -2.988281 2.378906 -2.976562 2.234375 -2.96875 C 1.960938 -2.957031 1.664062 -2.9375 1.34375 -2.90625 C 1.03125 -2.875 0.75 -2.84375 0.5 -2.8125 L 0.125 -3.75 C 0.457031 -3.707031 0.804688 -3.675781 1.171875 -3.65625 C 1.546875 -3.632812 1.894531 -3.613281 2.21875 -3.59375 C 2.394531 -3.59375 2.625 -3.59375 2.90625 -3.59375 C 3.195312 -3.59375 3.515625 -3.59375 3.859375 -3.59375 C 4.203125 -3.59375 4.5625 -3.597656 4.9375 -3.609375 C 5.3125 -3.617188 5.664062 -3.628906 6 -3.640625 C 6.34375 -3.648438 6.65625 -3.660156 6.9375 -3.671875 C 7.226562 -3.679688 7.460938 -3.6875 7.640625 -3.6875 C 8.117188 -3.71875 8.609375 -3.753906 9.109375 -3.796875 C 9.609375 -3.847656 10.054688 -3.898438 10.453125 -3.953125 Z M 8.984375 0.875 C 8.535156 0.851562 8.050781 0.835938 7.53125 0.828125 C 7.019531 0.816406 6.507812 0.8125 6 0.8125 C 5.488281 0.820312 5.003906 0.832031 4.546875 0.84375 C 4.085938 0.851562 3.695312 0.875 3.375 0.90625 C 3.113281 0.914062 2.929688 0.863281 2.828125 0.75 C 2.722656 0.632812 2.671875 0.492188 2.671875 0.328125 L 2.671875 -0.875 C 2.671875 -1.03125 2.660156 -1.15625 2.640625 -1.25 C 2.628906 -1.34375 2.585938 -1.421875 2.515625 -1.484375 C 2.453125 -1.554688 2.359375 -1.613281 2.234375 -1.65625 C 2.109375 -1.707031 1.9375 -1.757812 1.71875 -1.8125 L 1.890625 -2.21875 C 1.992188 -2.207031 2.128906 -2.191406 2.296875 -2.171875 C 2.460938 -2.148438 2.632812 -2.125 2.8125 -2.09375 C 2.988281 -2.070312 3.160156 -2.050781 3.328125 -2.03125 C 3.503906 -2.007812 3.644531 -1.988281 3.75 -1.96875 C 3.738281 -1.882812 3.722656 -1.753906 3.703125 -1.578125 C 3.691406 -1.410156 3.6875 -1.257812 3.6875 -1.125 L 3.6875 -0.015625 C 3.6875 0.117188 3.707031 0.203125 3.75 0.234375 C 3.789062 0.273438 3.890625 0.296875 4.046875 0.296875 C 4.222656 0.296875 4.441406 0.296875 4.703125 0.296875 C 4.972656 0.296875 5.257812 0.289062 5.5625 0.28125 C 5.875 0.269531 6.191406 0.253906 6.515625 0.234375 C 6.847656 0.222656 7.171875 0.207031 7.484375 0.1875 C 7.804688 0.164062 8.109375 0.140625 8.390625 0.109375 C 8.671875 0.078125 8.921875 0.046875 9.140625 0.015625 Z M 8.984375 0.875 "/></g></g></g><g fill="#ffbd59" fill-opacity="1"><g transform="translate(153.333007, 87.412897)"><g/></g></g><g fill="#ffbd59" fill-opacity="1"><g transform="translate(157.211493, 87.412897)"><g><path d="M 5.109375 -6.953125 C 4.972656 -6.960938 4.820312 -6.960938 4.65625 -6.953125 C 4.488281 -6.953125 4.320312 -6.945312 4.15625 -6.9375 C 3.988281 -6.9375 3.820312 -6.925781 3.65625 -6.90625 C 3.488281 -6.894531 3.34375 -6.882812 3.21875 -6.875 C 3.132812 -6.875 3.03125 -6.867188 2.90625 -6.859375 C 2.78125 -6.847656 2.644531 -6.832031 2.5 -6.8125 C 2.351562 -6.800781 2.203125 -6.785156 2.046875 -6.765625 C 1.890625 -6.753906 1.75 -6.738281 1.625 -6.71875 L 1.109375 -7.578125 C 1.191406 -7.554688 1.300781 -7.535156 1.4375 -7.515625 C 1.582031 -7.492188 1.734375 -7.472656 1.890625 -7.453125 C 2.046875 -7.441406 2.203125 -7.429688 2.359375 -7.421875 C 2.515625 -7.410156 2.648438 -7.40625 2.765625 -7.40625 C 2.960938 -7.40625 3.203125 -7.40625 3.484375 -7.40625 C 3.765625 -7.414062 4.066406 -7.425781 4.390625 -7.4375 C 4.710938 -7.445312 5.039062 -7.460938 5.375 -7.484375 C 5.707031 -7.503906 6.023438 -7.53125 6.328125 -7.5625 C 6.316406 -7.519531 6.300781 -7.457031 6.28125 -7.375 C 6.257812 -7.300781 6.238281 -7.222656 6.21875 -7.140625 C 6.207031 -7.054688 6.191406 -6.976562 6.171875 -6.90625 C 6.160156 -6.832031 6.148438 -6.78125 6.140625 -6.75 L 5.9375 -5.046875 C 6 -5.054688 6.0625 -5.0625 6.125 -5.0625 C 6.1875 -5.0625 6.25 -5.066406 6.3125 -5.078125 L 6.234375 -4.40625 C 5.421875 -4.4375 4.742188 -4.441406 4.203125 -4.421875 C 3.671875 -4.398438 3.21875 -4.378906 2.84375 -4.359375 C 2.84375 -4.296875 2.835938 -4.234375 2.828125 -4.171875 C 2.828125 -4.117188 2.828125 -4.066406 2.828125 -4.015625 L 2.828125 -2.53125 C 2.828125 -2.4375 2.851562 -2.359375 2.90625 -2.296875 C 2.957031 -2.234375 3.03125 -2.203125 3.125 -2.203125 C 3.382812 -2.234375 3.707031 -2.269531 4.09375 -2.3125 C 4.488281 -2.363281 4.898438 -2.425781 5.328125 -2.5 C 5.765625 -2.582031 6.210938 -2.675781 6.671875 -2.78125 C 7.128906 -2.882812 7.5625 -3 7.96875 -3.125 L 7.96875 -7.890625 C 7.96875 -8.109375 7.859375 -8.285156 7.640625 -8.421875 C 7.429688 -8.566406 7.09375 -8.695312 6.625 -8.8125 L 6.8125 -9.21875 C 6.988281 -9.195312 7.179688 -9.171875 7.390625 -9.140625 C 7.597656 -9.109375 7.804688 -9.070312 8.015625 -9.03125 C 8.222656 -8.988281 8.421875 -8.945312 8.609375 -8.90625 C 8.804688 -8.875 8.976562 -8.847656 9.125 -8.828125 C 9.101562 -8.765625 9.085938 -8.6875 9.078125 -8.59375 C 9.066406 -8.5 9.050781 -8.398438 9.03125 -8.296875 C 9.019531 -8.203125 9.007812 -8.113281 9 -8.03125 C 8.988281 -7.957031 8.984375 -7.898438 8.984375 -7.859375 L 8.984375 -1.859375 C 8.984375 -1.640625 8.976562 -1.382812 8.96875 -1.09375 C 8.957031 -0.800781 8.941406 -0.503906 8.921875 -0.203125 C 8.910156 0.0859375 8.894531 0.363281 8.875 0.625 C 8.851562 0.882812 8.828125 1.09375 8.796875 1.25 L 8.078125 1.359375 C 8.054688 1.242188 8.039062 1.085938 8.03125 0.890625 C 8.019531 0.691406 8.007812 0.484375 8 0.265625 C 7.988281 0.046875 7.976562 -0.175781 7.96875 -0.40625 C 7.96875 -0.644531 7.96875 -0.867188 7.96875 -1.078125 L 7.96875 -2.6875 C 7.601562 -2.550781 7.1875 -2.421875 6.71875 -2.296875 C 6.257812 -2.171875 5.796875 -2.050781 5.328125 -1.9375 C 4.859375 -1.832031 4.410156 -1.738281 3.984375 -1.65625 C 3.566406 -1.570312 3.210938 -1.519531 2.921875 -1.5 C 2.515625 -1.457031 2.226562 -1.507812 2.0625 -1.65625 C 1.894531 -1.8125 1.8125 -2.0625 1.8125 -2.40625 L 1.8125 -3.828125 C 1.8125 -3.960938 1.800781 -4.070312 1.78125 -4.15625 C 1.769531 -4.25 1.738281 -4.320312 1.6875 -4.375 C 1.632812 -4.4375 1.554688 -4.488281 1.453125 -4.53125 C 1.347656 -4.570312 1.210938 -4.617188 1.046875 -4.671875 L 1.21875 -5.015625 C 1.914062 -4.929688 2.582031 -4.894531 3.21875 -4.90625 C 3.851562 -4.914062 4.453125 -4.9375 5.015625 -4.96875 Z M 5.109375 -6.953125 "/></g></g></g><g fill="#ffbd59" fill-opacity="1"><g transform="translate(168.301238, 87.412897)"><g><path d="M 7.1875 -4.71875 C 6.90625 -4.726562 6.609375 -4.734375 6.296875 -4.734375 C 5.992188 -4.734375 5.679688 -4.726562 5.359375 -4.71875 C 5.046875 -4.71875 4.722656 -4.707031 4.390625 -4.6875 C 4.066406 -4.675781 3.75 -4.664062 3.4375 -4.65625 C 3.4375 -4.601562 3.429688 -4.550781 3.421875 -4.5 C 3.410156 -4.457031 3.398438 -4.410156 3.390625 -4.359375 L 2.703125 -4.25 C 2.679688 -4.394531 2.65625 -4.570312 2.625 -4.78125 C 2.601562 -5 2.59375 -5.207031 2.59375 -5.40625 L 2.59375 -7.484375 C 2.59375 -7.597656 2.582031 -7.691406 2.5625 -7.765625 C 2.539062 -7.847656 2.5 -7.921875 2.4375 -7.984375 C 2.375 -8.046875 2.285156 -8.097656 2.171875 -8.140625 C 2.054688 -8.191406 1.90625 -8.238281 1.71875 -8.28125 L 1.875 -8.65625 C 2 -8.644531 2.132812 -8.628906 2.28125 -8.609375 C 2.4375 -8.585938 2.59375 -8.566406 2.75 -8.546875 C 2.914062 -8.523438 3.078125 -8.5 3.234375 -8.46875 C 3.398438 -8.4375 3.554688 -8.410156 3.703125 -8.390625 C 3.671875 -8.253906 3.644531 -8.09375 3.625 -7.90625 C 3.601562 -7.71875 3.59375 -7.582031 3.59375 -7.5 L 3.59375 -7.1875 C 4.132812 -7.207031 4.710938 -7.226562 5.328125 -7.25 C 5.953125 -7.269531 6.554688 -7.300781 7.140625 -7.34375 L 7.140625 -7.84375 C 7.140625 -7.957031 7.125 -8.050781 7.09375 -8.125 C 7.0625 -8.207031 7.007812 -8.273438 6.9375 -8.328125 C 6.875 -8.390625 6.773438 -8.445312 6.640625 -8.5 C 6.515625 -8.550781 6.347656 -8.601562 6.140625 -8.65625 L 6.3125 -9.046875 C 6.613281 -9.003906 6.941406 -8.957031 7.296875 -8.90625 C 7.660156 -8.863281 7.984375 -8.816406 8.265625 -8.765625 C 8.253906 -8.703125 8.238281 -8.625 8.21875 -8.53125 C 8.207031 -8.4375 8.195312 -8.347656 8.1875 -8.265625 C 8.175781 -8.179688 8.164062 -8.101562 8.15625 -8.03125 C 8.144531 -7.957031 8.140625 -7.898438 8.140625 -7.859375 L 8.140625 -6.046875 C 8.140625 -5.710938 8.113281 -5.410156 8.0625 -5.140625 C 8.019531 -4.867188 7.984375 -4.648438 7.953125 -4.484375 L 7.21875 -4.359375 C 7.21875 -4.421875 7.210938 -4.476562 7.203125 -4.53125 C 7.203125 -4.59375 7.195312 -4.65625 7.1875 -4.71875 Z M 7.140625 -5.546875 L 7.140625 -6.671875 C 6.585938 -6.691406 6 -6.695312 5.375 -6.6875 C 4.75 -6.6875 4.15625 -6.664062 3.59375 -6.625 L 3.59375 -5.875 C 3.59375 -5.75 3.585938 -5.632812 3.578125 -5.53125 C 3.566406 -5.425781 3.554688 -5.320312 3.546875 -5.21875 C 3.816406 -5.226562 4.101562 -5.234375 4.40625 -5.234375 C 4.71875 -5.242188 5.03125 -5.253906 5.34375 -5.265625 C 5.65625 -5.273438 5.960938 -5.285156 6.265625 -5.296875 C 6.566406 -5.316406 6.859375 -5.335938 7.140625 -5.359375 Z M 7.484375 -1.21875 C 7.484375 -1.019531 7.476562 -0.8125 7.46875 -0.59375 C 7.457031 -0.375 7.441406 -0.160156 7.421875 0.046875 C 7.410156 0.265625 7.394531 0.472656 7.375 0.671875 C 7.351562 0.867188 7.328125 1.046875 7.296875 1.203125 L 6.5625 1.328125 C 6.550781 1.203125 6.539062 1.046875 6.53125 0.859375 C 6.519531 0.679688 6.507812 0.492188 6.5 0.296875 C 6.488281 0.0976562 6.484375 -0.0976562 6.484375 -0.296875 C 6.484375 -0.503906 6.484375 -0.6875 6.484375 -0.84375 L 6.484375 -2.890625 C 6.148438 -2.878906 5.800781 -2.867188 5.4375 -2.859375 C 5.070312 -2.859375 4.710938 -2.851562 4.359375 -2.84375 L 4.359375 -1.40625 C 4.359375 -1.21875 4.351562 -1.015625 4.34375 -0.796875 C 4.332031 -0.585938 4.316406 -0.375 4.296875 -0.15625 C 4.285156 0.0625 4.269531 0.269531 4.25 0.46875 C 4.226562 0.664062 4.203125 0.835938 4.171875 0.984375 L 3.4375 1.109375 C 3.425781 0.992188 3.414062 0.84375 3.40625 0.65625 C 3.394531 0.46875 3.382812 0.273438 3.375 0.078125 C 3.375 -0.117188 3.367188 -0.316406 3.359375 -0.515625 C 3.359375 -0.710938 3.359375 -0.890625 3.359375 -1.046875 L 3.359375 -2.8125 C 3.128906 -2.800781 2.921875 -2.789062 2.734375 -2.78125 C 2.554688 -2.78125 2.414062 -2.773438 2.3125 -2.765625 C 2.03125 -2.742188 1.734375 -2.71875 1.421875 -2.6875 C 1.109375 -2.664062 0.828125 -2.632812 0.578125 -2.59375 L 0.203125 -3.546875 C 0.523438 -3.503906 0.875 -3.46875 1.25 -3.4375 C 1.625 -3.414062 1.972656 -3.398438 2.296875 -3.390625 C 2.472656 -3.378906 2.703125 -3.375 2.984375 -3.375 C 3.265625 -3.375 3.570312 -3.375 3.90625 -3.375 C 4.238281 -3.382812 4.582031 -3.390625 4.9375 -3.390625 C 5.289062 -3.398438 5.628906 -3.410156 5.953125 -3.421875 C 6.285156 -3.429688 6.59375 -3.441406 6.875 -3.453125 C 7.15625 -3.472656 7.378906 -3.484375 7.546875 -3.484375 C 8.035156 -3.503906 8.53125 -3.535156 9.03125 -3.578125 C 9.53125 -3.628906 9.976562 -3.679688 10.375 -3.734375 L 10.234375 -2.84375 C 10.085938 -2.851562 9.921875 -2.859375 9.734375 -2.859375 C 9.546875 -2.867188 9.335938 -2.875 9.109375 -2.875 C 8.890625 -2.882812 8.660156 -2.894531 8.421875 -2.90625 C 8.179688 -2.914062 7.941406 -2.921875 7.703125 -2.921875 L 7.484375 -2.921875 Z M 7.484375 -1.21875 "/></g></g></g><g fill="#ffbd59" fill-opacity="1"><g transform="translate(179.390983, 87.412897)"><g><path d="M 1.4375 0.328125 C 1.320312 0.359375 1.210938 0.351562 1.109375 0.3125 C 1.015625 0.28125 0.925781 0.226562 0.84375 0.15625 C 0.769531 0.09375 0.707031 0.015625 0.65625 -0.078125 C 0.613281 -0.171875 0.59375 -0.265625 0.59375 -0.359375 C 0.59375 -0.546875 0.660156 -0.710938 0.796875 -0.859375 C 0.941406 -1.015625 1.128906 -1.09375 1.359375 -1.09375 C 1.628906 -1.09375 1.835938 -0.992188 1.984375 -0.796875 C 2.128906 -0.597656 2.203125 -0.347656 2.203125 -0.046875 C 2.203125 0.347656 2.09375 0.703125 1.875 1.015625 C 1.664062 1.335938 1.347656 1.570312 0.921875 1.71875 L 0.71875 1.421875 C 0.976562 1.316406 1.175781 1.175781 1.3125 1 C 1.457031 0.832031 1.53125 0.632812 1.53125 0.40625 C 1.53125 0.320312 1.5 0.296875 1.4375 0.328125 Z M 1.4375 0.328125 "/></g></g></g><g fill="#ffbd59" fill-opacity="1"><g transform="translate(182.977121, 87.412897)"><g/></g></g><g fill="#ffbd59" fill-opacity="1"><g transform="translate(186.855607, 87.412897)"><g><path d="M 4.03125 -6.875 C 4.34375 -6.832031 4.628906 -6.742188 4.890625 -6.609375 C 5.160156 -6.484375 5.390625 -6.320312 5.578125 -6.125 C 5.765625 -5.9375 5.910156 -5.71875 6.015625 -5.46875 C 6.128906 -5.226562 6.1875 -4.96875 6.1875 -4.6875 C 6.1875 -4.375 6.117188 -4.082031 5.984375 -3.8125 C 5.847656 -3.539062 5.660156 -3.304688 5.421875 -3.109375 C 5.191406 -2.910156 4.914062 -2.753906 4.59375 -2.640625 C 4.28125 -2.523438 3.9375 -2.46875 3.5625 -2.46875 C 3.175781 -2.46875 2.820312 -2.523438 2.5 -2.640625 C 2.1875 -2.753906 1.910156 -2.910156 1.671875 -3.109375 C 1.441406 -3.304688 1.257812 -3.539062 1.125 -3.8125 C 1 -4.082031 0.9375 -4.375 0.9375 -4.6875 C 0.9375 -4.976562 0.992188 -5.253906 1.109375 -5.515625 C 1.222656 -5.773438 1.378906 -6 1.578125 -6.1875 C 1.785156 -6.382812 2.03125 -6.546875 2.3125 -6.671875 C 2.59375 -6.796875 2.90625 -6.867188 3.25 -6.890625 C 3.25 -6.992188 3.21875 -7.078125 3.15625 -7.140625 C 3.09375 -7.210938 2.972656 -7.273438 2.796875 -7.328125 L 2.953125 -7.65625 C 3.035156 -7.632812 3.128906 -7.613281 3.234375 -7.59375 C 3.347656 -7.570312 3.457031 -7.550781 3.5625 -7.53125 C 3.675781 -7.507812 3.785156 -7.488281 3.890625 -7.46875 C 4.003906 -7.445312 4.101562 -7.425781 4.1875 -7.40625 C 4.164062 -7.332031 4.140625 -7.25 4.109375 -7.15625 C 4.078125 -7.070312 4.050781 -6.976562 4.03125 -6.875 Z M 5.140625 -4.71875 C 5.140625 -4.945312 5.097656 -5.160156 5.015625 -5.359375 C 4.929688 -5.566406 4.816406 -5.742188 4.671875 -5.890625 C 4.535156 -6.035156 4.375 -6.148438 4.1875 -6.234375 C 4 -6.328125 3.800781 -6.375 3.59375 -6.375 C 3.375 -6.375 3.164062 -6.328125 2.96875 -6.234375 C 2.78125 -6.148438 2.613281 -6.035156 2.46875 -5.890625 C 2.320312 -5.742188 2.207031 -5.566406 2.125 -5.359375 C 2.039062 -5.160156 2 -4.945312 2 -4.71875 C 2 -4.488281 2.039062 -4.273438 2.125 -4.078125 C 2.207031 -3.878906 2.320312 -3.707031 2.46875 -3.5625 C 2.613281 -3.425781 2.78125 -3.316406 2.96875 -3.234375 C 3.164062 -3.160156 3.375 -3.125 3.59375 -3.125 C 3.800781 -3.125 4 -3.160156 4.1875 -3.234375 C 4.382812 -3.316406 4.550781 -3.425781 4.6875 -3.5625 C 4.820312 -3.707031 4.929688 -3.878906 5.015625 -4.078125 C 5.097656 -4.273438 5.140625 -4.488281 5.140625 -4.71875 Z M 6.859375 -9.21875 C 7.035156 -9.195312 7.226562 -9.171875 7.4375 -9.140625 C 7.644531 -9.109375 7.851562 -9.070312 8.0625 -9.03125 C 8.269531 -8.988281 8.46875 -8.945312 8.65625 -8.90625 C 8.851562 -8.875 9.023438 -8.847656 9.171875 -8.828125 C 9.148438 -8.765625 9.128906 -8.6875 9.109375 -8.59375 C 9.097656 -8.5 9.085938 -8.398438 9.078125 -8.296875 C 9.066406 -8.203125 9.054688 -8.113281 9.046875 -8.03125 C 9.046875 -7.957031 9.046875 -7.898438 9.046875 -7.859375 L 9.046875 -1.859375 C 9.046875 -1.640625 9.039062 -1.382812 9.03125 -1.09375 C 9.019531 -0.800781 9.003906 -0.503906 8.984375 -0.203125 C 8.960938 0.0859375 8.941406 0.363281 8.921875 0.625 C 8.898438 0.882812 8.875 1.09375 8.84375 1.25 L 8.125 1.359375 C 8.113281 1.242188 8.097656 1.085938 8.078125 0.890625 C 8.066406 0.691406 8.054688 0.484375 8.046875 0.265625 C 8.035156 0.046875 8.023438 -0.175781 8.015625 -0.40625 C 8.015625 -0.644531 8.015625 -0.867188 8.015625 -1.078125 L 8.015625 -7.890625 C 8.015625 -8.109375 7.90625 -8.285156 7.6875 -8.421875 C 7.476562 -8.566406 7.132812 -8.695312 6.65625 -8.8125 Z M 6.859375 -9.21875 "/></g></g></g><g fill="#ffbd59" fill-opacity="1"><g transform="translate(197.945353, 87.412897)"><g><path d="M 3.734375 -6.875 C 4.046875 -6.820312 4.332031 -6.734375 4.59375 -6.609375 C 4.863281 -6.484375 5.09375 -6.320312 5.28125 -6.125 C 5.476562 -5.9375 5.628906 -5.71875 5.734375 -5.46875 C 5.835938 -5.226562 5.890625 -4.96875 5.890625 -4.6875 C 5.890625 -4.375 5.820312 -4.082031 5.6875 -3.8125 C 5.5625 -3.539062 5.378906 -3.304688 5.140625 -3.109375 C 4.898438 -2.910156 4.613281 -2.753906 4.28125 -2.640625 C 3.957031 -2.523438 3.609375 -2.46875 3.234375 -2.46875 C 2.859375 -2.46875 2.507812 -2.523438 2.1875 -2.640625 C 1.875 -2.753906 1.597656 -2.910156 1.359375 -3.109375 C 1.128906 -3.304688 0.945312 -3.539062 0.8125 -3.8125 C 0.6875 -4.082031 0.625 -4.375 0.625 -4.6875 C 0.625 -4.976562 0.679688 -5.25 0.796875 -5.5 C 0.910156 -5.757812 1.066406 -5.988281 1.265625 -6.1875 C 1.472656 -6.382812 1.71875 -6.539062 2 -6.65625 C 2.28125 -6.78125 2.585938 -6.859375 2.921875 -6.890625 C 2.921875 -6.992188 2.890625 -7.078125 2.828125 -7.140625 C 2.765625 -7.210938 2.644531 -7.273438 2.46875 -7.328125 L 2.65625 -7.65625 C 2.726562 -7.632812 2.816406 -7.613281 2.921875 -7.59375 C 3.035156 -7.570312 3.144531 -7.550781 3.25 -7.53125 C 3.363281 -7.507812 3.476562 -7.488281 3.59375 -7.46875 C 3.707031 -7.445312 3.804688 -7.425781 3.890625 -7.40625 C 3.859375 -7.332031 3.828125 -7.25 3.796875 -7.15625 C 3.773438 -7.0625 3.753906 -6.96875 3.734375 -6.875 Z M 4.828125 -4.71875 C 4.828125 -4.945312 4.785156 -5.160156 4.703125 -5.359375 C 4.617188 -5.566406 4.503906 -5.742188 4.359375 -5.890625 C 4.222656 -6.035156 4.0625 -6.148438 3.875 -6.234375 C 3.6875 -6.328125 3.484375 -6.375 3.265625 -6.375 C 3.046875 -6.375 2.84375 -6.328125 2.65625 -6.234375 C 2.46875 -6.148438 2.300781 -6.035156 2.15625 -5.890625 C 2.019531 -5.742188 1.910156 -5.566406 1.828125 -5.359375 C 1.753906 -5.160156 1.71875 -4.945312 1.71875 -4.71875 C 1.71875 -4.488281 1.753906 -4.273438 1.828125 -4.078125 C 1.910156 -3.878906 2.019531 -3.707031 2.15625 -3.5625 C 2.300781 -3.425781 2.46875 -3.316406 2.65625 -3.234375 C 2.84375 -3.160156 3.046875 -3.125 3.265625 -3.125 C 3.484375 -3.125 3.6875 -3.160156 3.875 -3.234375 C 4.0625 -3.316406 4.222656 -3.425781 4.359375 -3.5625 C 4.503906 -3.707031 4.617188 -3.878906 4.703125 -4.078125 C 4.785156 -4.273438 4.828125 -4.488281 4.828125 -4.71875 Z M 8.359375 -3.359375 C 8.679688 -3.367188 9.050781 -3.394531 9.46875 -3.4375 C 9.882812 -3.488281 10.257812 -3.546875 10.59375 -3.609375 L 10.484375 -2.734375 C 10.359375 -2.734375 10.203125 -2.734375 10.015625 -2.734375 C 9.835938 -2.734375 9.648438 -2.734375 9.453125 -2.734375 C 9.265625 -2.734375 9.070312 -2.734375 8.875 -2.734375 C 8.6875 -2.734375 8.515625 -2.734375 8.359375 -2.734375 L 8.359375 -1.859375 C 8.359375 -1.640625 8.351562 -1.382812 8.34375 -1.09375 C 8.34375 -0.800781 8.332031 -0.503906 8.3125 -0.203125 C 8.289062 0.0859375 8.269531 0.363281 8.25 0.625 C 8.226562 0.882812 8.207031 1.09375 8.1875 1.25 L 7.4375 1.359375 C 7.425781 1.242188 7.414062 1.085938 7.40625 0.890625 C 7.394531 0.691406 7.382812 0.484375 7.375 0.265625 C 7.363281 0.046875 7.351562 -0.175781 7.34375 -0.40625 C 7.34375 -0.644531 7.34375 -0.867188 7.34375 -1.078125 L 7.34375 -7.890625 C 7.34375 -8.109375 7.238281 -8.285156 7.03125 -8.421875 C 6.832031 -8.566406 6.492188 -8.695312 6.015625 -8.8125 L 6.171875 -9.21875 C 6.359375 -9.195312 6.554688 -9.171875 6.765625 -9.140625 C 6.972656 -9.109375 7.179688 -9.070312 7.390625 -9.03125 C 7.609375 -8.988281 7.8125 -8.945312 8 -8.90625 C 8.1875 -8.875 8.347656 -8.847656 8.484375 -8.828125 C 8.472656 -8.765625 8.457031 -8.6875 8.4375 -8.59375 C 8.425781 -8.5 8.414062 -8.398438 8.40625 -8.296875 C 8.394531 -8.203125 8.382812 -8.113281 8.375 -8.03125 C 8.363281 -7.957031 8.359375 -7.898438 8.359375 -7.859375 L 8.359375 -6.328125 C 8.679688 -6.335938 9.050781 -6.363281 9.46875 -6.40625 C 9.882812 -6.457031 10.257812 -6.515625 10.59375 -6.578125 L 10.484375 -5.6875 C 10.359375 -5.695312 10.203125 -5.703125 10.015625 -5.703125 C 9.835938 -5.703125 9.648438 -5.703125 9.453125 -5.703125 C 9.265625 -5.703125 9.070312 -5.703125 8.875 -5.703125 C 8.6875 -5.703125 8.515625 -5.703125 8.359375 -5.703125 Z M 8.359375 -3.359375 "/></g></g></g><g fill="#ffbd59" fill-opacity="1"><g transform="translate(209.035098, 87.412897)"><g><path d="M 6.34375 -7.046875 C 6.132812 -6.421875 5.847656 -5.8125 5.484375 -5.21875 C 5.117188 -4.625 4.703125 -4.066406 4.234375 -3.546875 C 3.773438 -3.035156 3.269531 -2.566406 2.71875 -2.140625 C 2.164062 -1.710938 1.609375 -1.359375 1.046875 -1.078125 L 0.71875 -1.390625 C 1.238281 -1.703125 1.726562 -2.0625 2.1875 -2.46875 C 2.644531 -2.882812 3.0625 -3.320312 3.4375 -3.78125 C 3.8125 -4.25 4.128906 -4.722656 4.390625 -5.203125 C 4.660156 -5.691406 4.863281 -6.160156 5 -6.609375 C 4.882812 -6.609375 4.742188 -6.601562 4.578125 -6.59375 C 4.410156 -6.59375 4.234375 -6.585938 4.046875 -6.578125 C 3.859375 -6.578125 3.675781 -6.570312 3.5 -6.5625 C 3.332031 -6.550781 3.195312 -6.546875 3.09375 -6.546875 C 3.019531 -6.546875 2.914062 -6.539062 2.78125 -6.53125 C 2.65625 -6.519531 2.515625 -6.503906 2.359375 -6.484375 C 2.210938 -6.472656 2.0625 -6.457031 1.90625 -6.4375 C 1.75 -6.414062 1.613281 -6.394531 1.5 -6.375 L 0.953125 -7.25 C 1.046875 -7.226562 1.164062 -7.207031 1.3125 -7.1875 C 1.457031 -7.175781 1.609375 -7.160156 1.765625 -7.140625 C 1.921875 -7.128906 2.078125 -7.117188 2.234375 -7.109375 C 2.390625 -7.109375 2.53125 -7.109375 2.65625 -7.109375 C 2.914062 -7.109375 3.195312 -7.113281 3.5 -7.125 C 3.8125 -7.132812 4.117188 -7.148438 4.421875 -7.171875 C 4.722656 -7.191406 5.007812 -7.21875 5.28125 -7.25 C 5.5625 -7.289062 5.8125 -7.332031 6.03125 -7.375 Z M 6.671875 -9.21875 C 6.847656 -9.195312 7.039062 -9.171875 7.25 -9.140625 C 7.457031 -9.109375 7.664062 -9.070312 7.875 -9.03125 C 8.082031 -8.988281 8.28125 -8.945312 8.46875 -8.90625 C 8.664062 -8.875 8.835938 -8.847656 8.984375 -8.828125 C 8.960938 -8.765625 8.945312 -8.6875 8.9375 -8.59375 C 8.925781 -8.5 8.914062 -8.398438 8.90625 -8.296875 C 8.894531 -8.203125 8.882812 -8.113281 8.875 -8.03125 C 8.863281 -7.957031 8.859375 -7.898438 8.859375 -7.859375 L 8.859375 -1.859375 C 8.859375 -1.640625 8.851562 -1.382812 8.84375 -1.09375 C 8.832031 -0.800781 8.816406 -0.503906 8.796875 -0.203125 C 8.785156 0.0859375 8.765625 0.363281 8.734375 0.625 C 8.710938 0.882812 8.691406 1.09375 8.671875 1.25 L 7.9375 1.359375 C 7.925781 1.242188 7.914062 1.085938 7.90625 0.890625 C 7.894531 0.691406 7.882812 0.484375 7.875 0.265625 C 7.863281 0.046875 7.851562 -0.175781 7.84375 -0.40625 C 7.84375 -0.644531 7.84375 -0.867188 7.84375 -1.078125 L 7.84375 -7.890625 C 7.84375 -8.109375 7.734375 -8.285156 7.515625 -8.421875 C 7.304688 -8.566406 6.960938 -8.695312 6.484375 -8.8125 Z M 6.671875 -9.21875 "/></g></g></g><g fill="#ffbd59" fill-opacity="1"><g transform="translate(220.124843, 87.412897)"><g><path d="M 8.390625 -1.859375 C 8.390625 -1.640625 8.382812 -1.382812 8.375 -1.09375 C 8.363281 -0.800781 8.351562 -0.503906 8.34375 -0.203125 C 8.332031 0.0859375 8.3125 0.363281 8.28125 0.625 C 8.257812 0.882812 8.238281 1.09375 8.21875 1.25 L 7.46875 1.359375 C 7.457031 1.242188 7.445312 1.085938 7.4375 0.890625 C 7.425781 0.691406 7.414062 0.484375 7.40625 0.265625 C 7.394531 0.046875 7.382812 -0.175781 7.375 -0.40625 C 7.375 -0.644531 7.375 -0.867188 7.375 -1.078125 L 7.375 -7.890625 C 7.375 -8.109375 7.269531 -8.285156 7.0625 -8.421875 C 6.863281 -8.566406 6.523438 -8.695312 6.046875 -8.8125 L 6.203125 -9.21875 C 6.390625 -9.195312 6.585938 -9.171875 6.796875 -9.140625 C 7.015625 -9.109375 7.226562 -9.070312 7.4375 -9.03125 C 7.644531 -8.988281 7.84375 -8.945312 8.03125 -8.90625 C 8.21875 -8.875 8.378906 -8.847656 8.515625 -8.828125 C 8.503906 -8.765625 8.488281 -8.6875 8.46875 -8.59375 C 8.457031 -8.5 8.445312 -8.398438 8.4375 -8.296875 C 8.425781 -8.203125 8.414062 -8.113281 8.40625 -8.03125 C 8.394531 -7.957031 8.390625 -7.898438 8.390625 -7.859375 L 8.390625 -4.5 C 8.710938 -4.519531 9.066406 -4.546875 9.453125 -4.578125 C 9.847656 -4.617188 10.207031 -4.671875 10.53125 -4.734375 L 10.4375 -3.859375 C 10.300781 -3.867188 10.148438 -3.875 9.984375 -3.875 C 9.816406 -3.875 9.640625 -3.875 9.453125 -3.875 C 9.265625 -3.875 9.082031 -3.875 8.90625 -3.875 C 8.726562 -3.875 8.554688 -3.875 8.390625 -3.875 Z M 5.984375 -7.046875 C 5.773438 -6.421875 5.492188 -5.816406 5.140625 -5.234375 C 4.785156 -4.648438 4.378906 -4.097656 3.921875 -3.578125 C 3.472656 -3.066406 2.976562 -2.597656 2.4375 -2.171875 C 1.90625 -1.742188 1.347656 -1.378906 0.765625 -1.078125 L 0.453125 -1.40625 C 0.960938 -1.707031 1.441406 -2.066406 1.890625 -2.484375 C 2.347656 -2.898438 2.753906 -3.335938 3.109375 -3.796875 C 3.472656 -4.265625 3.78125 -4.738281 4.03125 -5.21875 C 4.289062 -5.707031 4.484375 -6.171875 4.609375 -6.609375 C 4.503906 -6.609375 4.367188 -6.601562 4.203125 -6.59375 C 4.046875 -6.59375 3.878906 -6.585938 3.703125 -6.578125 C 3.523438 -6.578125 3.359375 -6.570312 3.203125 -6.5625 C 3.046875 -6.550781 2.914062 -6.546875 2.8125 -6.546875 C 2.738281 -6.546875 2.632812 -6.539062 2.5 -6.53125 C 2.375 -6.519531 2.234375 -6.503906 2.078125 -6.484375 C 1.929688 -6.472656 1.78125 -6.457031 1.625 -6.4375 C 1.476562 -6.414062 1.34375 -6.394531 1.21875 -6.375 L 0.65625 -7.265625 C 0.75 -7.242188 0.867188 -7.222656 1.015625 -7.203125 C 1.160156 -7.191406 1.3125 -7.175781 1.46875 -7.15625 C 1.632812 -7.144531 1.789062 -7.132812 1.9375 -7.125 C 2.09375 -7.113281 2.234375 -7.109375 2.359375 -7.109375 C 2.617188 -7.109375 2.898438 -7.113281 3.203125 -7.125 C 3.503906 -7.132812 3.800781 -7.148438 4.09375 -7.171875 C 4.382812 -7.191406 4.664062 -7.21875 4.9375 -7.25 C 5.207031 -7.289062 5.441406 -7.332031 5.640625 -7.375 Z M 5.984375 -7.046875 "/></g></g></g><g fill="#ffbd59" fill-opacity="1"><g transform="translate(231.214595, 87.412897)"><g/></g></g><g fill="#ffbd59" fill-opacity="1"><g transform="translate(235.093088, 87.412897)"><g><path d="M 4.0625 -3.96875 C 3.832031 -3.957031 3.613281 -3.945312 3.40625 -3.9375 C 3.195312 -3.9375 3.003906 -3.925781 2.828125 -3.90625 C 2.578125 -3.894531 2.382812 -3.957031 2.25 -4.09375 C 2.125 -4.238281 2.0625 -4.410156 2.0625 -4.609375 L 2.0625 -6.421875 C 2.0625 -6.566406 2.050781 -6.6875 2.03125 -6.78125 C 2.007812 -6.882812 1.960938 -6.96875 1.890625 -7.03125 C 1.828125 -7.09375 1.734375 -7.148438 1.609375 -7.203125 C 1.492188 -7.253906 1.328125 -7.304688 1.109375 -7.359375 L 1.3125 -7.75 C 1.769531 -7.675781 2.257812 -7.628906 2.78125 -7.609375 C 3.300781 -7.585938 3.8125 -7.582031 4.3125 -7.59375 C 4.820312 -7.613281 5.300781 -7.644531 5.75 -7.6875 C 6.195312 -7.726562 6.582031 -7.773438 6.90625 -7.828125 L 6.75 -6.984375 C 6.4375 -7.003906 6.109375 -7.015625 5.765625 -7.015625 C 5.429688 -7.023438 5.097656 -7.03125 4.765625 -7.03125 C 4.441406 -7.03125 4.132812 -7.023438 3.84375 -7.015625 C 3.550781 -7.003906 3.300781 -6.988281 3.09375 -6.96875 L 3.09375 -4.828125 C 3.09375 -4.679688 3.109375 -4.59375 3.140625 -4.5625 C 3.179688 -4.539062 3.285156 -4.523438 3.453125 -4.515625 C 3.640625 -4.503906 3.875 -4.503906 4.15625 -4.515625 C 4.4375 -4.535156 4.738281 -4.5625 5.0625 -4.59375 C 5.382812 -4.625 5.710938 -4.660156 6.046875 -4.703125 C 6.390625 -4.753906 6.71875 -4.804688 7.03125 -4.859375 L 6.875 -4.015625 C 6.601562 -4.023438 6.316406 -4.023438 6.015625 -4.015625 C 5.710938 -4.015625 5.398438 -4.015625 5.078125 -4.015625 L 5.078125 -2.28125 C 5.640625 -2.34375 6.179688 -2.414062 6.703125 -2.5 C 7.234375 -2.582031 7.722656 -2.675781 8.171875 -2.78125 L 8.171875 -7.890625 C 8.171875 -8.109375 8.066406 -8.285156 7.859375 -8.421875 C 7.648438 -8.566406 7.304688 -8.695312 6.828125 -8.8125 L 7.015625 -9.21875 C 7.179688 -9.195312 7.367188 -9.171875 7.578125 -9.140625 C 7.785156 -9.109375 7.992188 -9.070312 8.203125 -9.03125 C 8.421875 -8.988281 8.625 -8.945312 8.8125 -8.90625 C 9 -8.875 9.164062 -8.847656 9.3125 -8.828125 C 9.300781 -8.765625 9.285156 -8.6875 9.265625 -8.59375 C 9.253906 -8.5 9.242188 -8.398438 9.234375 -8.296875 C 9.222656 -8.203125 9.210938 -8.113281 9.203125 -8.03125 C 9.203125 -7.957031 9.203125 -7.898438 9.203125 -7.859375 L 9.203125 -1.859375 C 9.203125 -1.640625 9.195312 -1.382812 9.1875 -1.09375 C 9.175781 -0.800781 9.160156 -0.503906 9.140625 -0.203125 C 9.117188 0.0859375 9.09375 0.363281 9.0625 0.625 C 9.039062 0.882812 9.015625 1.09375 8.984375 1.25 L 8.28125 1.359375 C 8.257812 1.242188 8.242188 1.085938 8.234375 0.890625 C 8.222656 0.691406 8.210938 0.484375 8.203125 0.265625 C 8.191406 0.046875 8.179688 -0.175781 8.171875 -0.40625 C 8.171875 -0.644531 8.171875 -0.867188 8.171875 -1.078125 L 8.171875 -2.3125 C 7.722656 -2.207031 7.265625 -2.109375 6.796875 -2.015625 C 6.328125 -1.929688 5.859375 -1.851562 5.390625 -1.78125 C 4.929688 -1.707031 4.484375 -1.640625 4.046875 -1.578125 C 3.617188 -1.523438 3.226562 -1.488281 2.875 -1.46875 C 2.8125 -1.457031 2.707031 -1.445312 2.5625 -1.4375 C 2.425781 -1.425781 2.273438 -1.410156 2.109375 -1.390625 C 1.953125 -1.367188 1.789062 -1.347656 1.625 -1.328125 C 1.46875 -1.316406 1.328125 -1.300781 1.203125 -1.28125 L 0.65625 -2.203125 C 0.769531 -2.179688 0.90625 -2.160156 1.0625 -2.140625 C 1.21875 -2.128906 1.378906 -2.113281 1.546875 -2.09375 C 1.710938 -2.082031 1.867188 -2.070312 2.015625 -2.0625 C 2.171875 -2.0625 2.300781 -2.0625 2.40625 -2.0625 C 2.675781 -2.082031 2.953125 -2.097656 3.234375 -2.109375 C 3.515625 -2.128906 3.789062 -2.148438 4.0625 -2.171875 Z M 4.0625 -3.96875 "/></g></g></g><g fill="#ffbd59" fill-opacity="1"><g transform="translate(246.18284, 87.412897)"><g><path d="M 4.046875 -6.875 C 4.578125 -6.800781 5.03125 -6.609375 5.40625 -6.296875 C 5.78125 -5.984375 6.019531 -5.609375 6.125 -5.171875 C 6.269531 -5.148438 6.414062 -5.132812 6.5625 -5.125 C 6.71875 -5.113281 6.851562 -5.113281 6.96875 -5.125 C 7.125 -5.132812 7.296875 -5.140625 7.484375 -5.140625 C 7.679688 -5.140625 7.859375 -5.148438 8.015625 -5.171875 L 8.015625 -7.890625 C 8.015625 -8.109375 7.90625 -8.285156 7.6875 -8.421875 C 7.476562 -8.566406 7.132812 -8.695312 6.65625 -8.8125 L 6.859375 -9.21875 C 7.035156 -9.195312 7.226562 -9.171875 7.4375 -9.140625 C 7.644531 -9.109375 7.851562 -9.070312 8.0625 -9.03125 C 8.269531 -8.988281 8.46875 -8.945312 8.65625 -8.90625 C 8.851562 -8.875 9.023438 -8.847656 9.171875 -8.828125 C 9.148438 -8.765625 9.128906 -8.6875 9.109375 -8.59375 C 9.097656 -8.5 9.085938 -8.398438 9.078125 -8.296875 C 9.066406 -8.203125 9.054688 -8.113281 9.046875 -8.03125 C 9.046875 -7.957031 9.046875 -7.898438 9.046875 -7.859375 L 9.046875 -1.859375 C 9.046875 -1.640625 9.039062 -1.382812 9.03125 -1.09375 C 9.019531 -0.800781 9.003906 -0.503906 8.984375 -0.203125 C 8.960938 0.0859375 8.941406 0.363281 8.921875 0.625 C 8.898438 0.882812 8.875 1.09375 8.84375 1.25 L 8.125 1.359375 C 8.113281 1.242188 8.097656 1.085938 8.078125 0.890625 C 8.066406 0.691406 8.054688 0.484375 8.046875 0.265625 C 8.035156 0.046875 8.023438 -0.175781 8.015625 -0.40625 C 8.015625 -0.644531 8.015625 -0.867188 8.015625 -1.078125 L 8.015625 -4.640625 C 7.722656 -4.628906 7.414062 -4.609375 7.09375 -4.578125 C 6.78125 -4.554688 6.46875 -4.515625 6.15625 -4.453125 C 6.125 -4.160156 6.035156 -3.894531 5.890625 -3.65625 C 5.742188 -3.414062 5.554688 -3.207031 5.328125 -3.03125 C 5.109375 -2.851562 4.84375 -2.710938 4.53125 -2.609375 C 4.226562 -2.515625 3.90625 -2.46875 3.5625 -2.46875 C 3.175781 -2.46875 2.820312 -2.523438 2.5 -2.640625 C 2.1875 -2.753906 1.910156 -2.910156 1.671875 -3.109375 C 1.441406 -3.304688 1.257812 -3.539062 1.125 -3.8125 C 1 -4.082031 0.9375 -4.375 0.9375 -4.6875 C 0.9375 -4.976562 0.992188 -5.253906 1.109375 -5.515625 C 1.222656 -5.773438 1.378906 -6 1.578125 -6.1875 C 1.785156 -6.382812 2.03125 -6.546875 2.3125 -6.671875 C 2.59375 -6.796875 2.90625 -6.867188 3.25 -6.890625 C 3.238281 -6.992188 3.203125 -7.070312 3.140625 -7.125 C 3.085938 -7.1875 2.972656 -7.25 2.796875 -7.3125 L 2.953125 -7.640625 C 3.035156 -7.617188 3.128906 -7.597656 3.234375 -7.578125 C 3.347656 -7.554688 3.457031 -7.53125 3.5625 -7.5 C 3.675781 -7.476562 3.785156 -7.457031 3.890625 -7.4375 C 4.003906 -7.414062 4.101562 -7.394531 4.1875 -7.375 C 4.164062 -7.3125 4.140625 -7.234375 4.109375 -7.140625 C 4.078125 -7.054688 4.054688 -6.96875 4.046875 -6.875 Z M 5.140625 -4.71875 C 5.140625 -4.945312 5.097656 -5.160156 5.015625 -5.359375 C 4.929688 -5.566406 4.816406 -5.742188 4.671875 -5.890625 C 4.535156 -6.035156 4.375 -6.148438 4.1875 -6.234375 C 4 -6.328125 3.800781 -6.375 3.59375 -6.375 C 3.375 -6.375 3.164062 -6.328125 2.96875 -6.234375 C 2.78125 -6.148438 2.613281 -6.035156 2.46875 -5.890625 C 2.320312 -5.742188 2.207031 -5.566406 2.125 -5.359375 C 2.039062 -5.160156 2 -4.945312 2 -4.71875 C 2 -4.488281 2.039062 -4.273438 2.125 -4.078125 C 2.207031 -3.878906 2.320312 -3.707031 2.46875 -3.5625 C 2.613281 -3.425781 2.78125 -3.316406 2.96875 -3.234375 C 3.164062 -3.160156 3.375 -3.125 3.59375 -3.125 C 3.800781 -3.125 4 -3.160156 4.1875 -3.234375 C 4.382812 -3.316406 4.550781 -3.425781 4.6875 -3.5625 C 4.820312 -3.707031 4.929688 -3.878906 5.015625 -4.078125 C 5.097656 -4.273438 5.140625 -4.488281 5.140625 -4.71875 Z M 5.140625 -4.71875 "/></g></g></g><g fill="#ffbd59" fill-opacity="1"><g transform="translate(257.272593, 87.412897)"><g/></g></g><g fill="#ffbd59" fill-opacity="1"><g transform="translate(261.151086, 87.412897)"><g><path d="M 6.0625 -1.046875 C 6.351562 -1.054688 6.617188 -1.0625 6.859375 -1.0625 C 7.097656 -1.070312 7.300781 -1.082031 7.46875 -1.09375 C 7.957031 -1.113281 8.453125 -1.144531 8.953125 -1.1875 C 9.453125 -1.238281 9.898438 -1.296875 10.296875 -1.359375 L 10.15625 -0.46875 C 9.875 -0.476562 9.5 -0.488281 9.03125 -0.5 C 8.570312 -0.507812 8.097656 -0.515625 7.609375 -0.515625 C 7.410156 -0.515625 7.164062 -0.515625 6.875 -0.515625 C 6.59375 -0.515625 6.28125 -0.507812 5.9375 -0.5 C 5.601562 -0.488281 5.257812 -0.472656 4.90625 -0.453125 C 4.5625 -0.441406 4.226562 -0.429688 3.90625 -0.421875 C 3.59375 -0.410156 3.304688 -0.398438 3.046875 -0.390625 C 2.796875 -0.378906 2.597656 -0.367188 2.453125 -0.359375 C 2.171875 -0.335938 1.875 -0.3125 1.5625 -0.28125 C 1.257812 -0.257812 0.972656 -0.226562 0.703125 -0.1875 L 0.359375 -1.140625 C 0.679688 -1.109375 1.023438 -1.078125 1.390625 -1.046875 C 1.753906 -1.023438 2.101562 -1.007812 2.4375 -1 C 2.570312 -0.988281 2.734375 -0.984375 2.921875 -0.984375 C 3.117188 -0.984375 3.332031 -0.984375 3.5625 -0.984375 C 3.789062 -0.984375 4.03125 -0.984375 4.28125 -0.984375 C 4.53125 -0.992188 4.78125 -1 5.03125 -1 L 5.03125 -3.53125 C 4.738281 -3.53125 4.457031 -3.523438 4.1875 -3.515625 C 3.914062 -3.515625 3.671875 -3.515625 3.453125 -3.515625 C 3.441406 -3.367188 3.421875 -3.226562 3.390625 -3.09375 L 2.71875 -2.984375 C 2.6875 -3.128906 2.648438 -3.304688 2.609375 -3.515625 C 2.566406 -3.722656 2.539062 -3.921875 2.53125 -4.109375 L 2.34375 -6.796875 C 2.320312 -6.921875 2.300781 -7.023438 2.28125 -7.109375 C 2.269531 -7.191406 2.238281 -7.257812 2.1875 -7.3125 C 2.144531 -7.363281 2.070312 -7.40625 1.96875 -7.4375 C 1.875 -7.476562 1.75 -7.519531 1.59375 -7.5625 L 1.765625 -7.953125 C 2.234375 -7.890625 2.753906 -7.847656 3.328125 -7.828125 C 3.898438 -7.816406 4.484375 -7.8125 5.078125 -7.8125 C 5.679688 -7.820312 6.269531 -7.84375 6.84375 -7.875 C 7.425781 -7.90625 7.957031 -7.9375 8.4375 -7.96875 C 8.40625 -7.78125 8.375 -7.523438 8.34375 -7.203125 C 8.3125 -6.890625 8.28125 -6.550781 8.25 -6.1875 C 8.226562 -5.832031 8.203125 -5.476562 8.171875 -5.125 C 8.140625 -4.78125 8.117188 -4.476562 8.109375 -4.21875 C 8.191406 -4.226562 8.269531 -4.234375 8.34375 -4.234375 C 8.425781 -4.242188 8.5 -4.253906 8.5625 -4.265625 L 8.359375 -3.484375 C 8.097656 -3.503906 7.765625 -3.519531 7.359375 -3.53125 C 6.953125 -3.539062 6.519531 -3.546875 6.0625 -3.546875 Z M 7.296875 -7.28125 C 7.066406 -7.289062 6.769531 -7.296875 6.40625 -7.296875 C 6.039062 -7.296875 5.664062 -7.289062 5.28125 -7.28125 C 4.90625 -7.28125 4.539062 -7.273438 4.1875 -7.265625 C 3.832031 -7.253906 3.5625 -7.238281 3.375 -7.21875 L 3.484375 -4.3125 C 3.484375 -4.269531 3.484375 -4.226562 3.484375 -4.1875 C 3.492188 -4.144531 3.492188 -4.101562 3.484375 -4.0625 C 3.742188 -4.0625 4.03125 -4.0625 4.34375 -4.0625 C 4.65625 -4.070312 4.972656 -4.082031 5.296875 -4.09375 C 5.628906 -4.101562 5.957031 -4.113281 6.28125 -4.125 C 6.613281 -4.144531 6.925781 -4.160156 7.21875 -4.171875 Z M 7.296875 -7.28125 "/></g></g></g><g fill="#ffbd59" fill-opacity="1"><g transform="translate(272.240838, 87.412897)"><g><path d="M 4.03125 -6.875 C 4.34375 -6.832031 4.628906 -6.742188 4.890625 -6.609375 C 5.160156 -6.484375 5.390625 -6.320312 5.578125 -6.125 C 5.765625 -5.9375 5.910156 -5.71875 6.015625 -5.46875 C 6.128906 -5.226562 6.1875 -4.96875 6.1875 -4.6875 C 6.1875 -4.375 6.117188 -4.082031 5.984375 -3.8125 C 5.847656 -3.539062 5.660156 -3.304688 5.421875 -3.109375 C 5.191406 -2.910156 4.914062 -2.753906 4.59375 -2.640625 C 4.28125 -2.523438 3.9375 -2.46875 3.5625 -2.46875 C 3.175781 -2.46875 2.820312 -2.523438 2.5 -2.640625 C 2.1875 -2.753906 1.910156 -2.910156 1.671875 -3.109375 C 1.441406 -3.304688 1.257812 -3.539062 1.125 -3.8125 C 1 -4.082031 0.9375 -4.375 0.9375 -4.6875 C 0.9375 -4.976562 0.992188 -5.253906 1.109375 -5.515625 C 1.222656 -5.773438 1.378906 -6 1.578125 -6.1875 C 1.785156 -6.382812 2.03125 -6.546875 2.3125 -6.671875 C 2.59375 -6.796875 2.90625 -6.867188 3.25 -6.890625 C 3.25 -6.992188 3.21875 -7.078125 3.15625 -7.140625 C 3.09375 -7.210938 2.972656 -7.273438 2.796875 -7.328125 L 2.953125 -7.65625 C 3.035156 -7.632812 3.128906 -7.613281 3.234375 -7.59375 C 3.347656 -7.570312 3.457031 -7.550781 3.5625 -7.53125 C 3.675781 -7.507812 3.785156 -7.488281 3.890625 -7.46875 C 4.003906 -7.445312 4.101562 -7.425781 4.1875 -7.40625 C 4.164062 -7.332031 4.140625 -7.25 4.109375 -7.15625 C 4.078125 -7.070312 4.050781 -6.976562 4.03125 -6.875 Z M 5.140625 -4.71875 C 5.140625 -4.945312 5.097656 -5.160156 5.015625 -5.359375 C 4.929688 -5.566406 4.816406 -5.742188 4.671875 -5.890625 C 4.535156 -6.035156 4.375 -6.148438 4.1875 -6.234375 C 4 -6.328125 3.800781 -6.375 3.59375 -6.375 C 3.375 -6.375 3.164062 -6.328125 2.96875 -6.234375 C 2.78125 -6.148438 2.613281 -6.035156 2.46875 -5.890625 C 2.320312 -5.742188 2.207031 -5.566406 2.125 -5.359375 C 2.039062 -5.160156 2 -4.945312 2 -4.71875 C 2 -4.488281 2.039062 -4.273438 2.125 -4.078125 C 2.207031 -3.878906 2.320312 -3.707031 2.46875 -3.5625 C 2.613281 -3.425781 2.78125 -3.316406 2.96875 -3.234375 C 3.164062 -3.160156 3.375 -3.125 3.59375 -3.125 C 3.800781 -3.125 4 -3.160156 4.1875 -3.234375 C 4.382812 -3.316406 4.550781 -3.425781 4.6875 -3.5625 C 4.820312 -3.707031 4.929688 -3.878906 5.015625 -4.078125 C 5.097656 -4.273438 5.140625 -4.488281 5.140625 -4.71875 Z M 6.859375 -9.21875 C 7.035156 -9.195312 7.226562 -9.171875 7.4375 -9.140625 C 7.644531 -9.109375 7.851562 -9.070312 8.0625 -9.03125 C 8.269531 -8.988281 8.46875 -8.945312 8.65625 -8.90625 C 8.851562 -8.875 9.023438 -8.847656 9.171875 -8.828125 C 9.148438 -8.765625 9.128906 -8.6875 9.109375 -8.59375 C 9.097656 -8.5 9.085938 -8.398438 9.078125 -8.296875 C 9.066406 -8.203125 9.054688 -8.113281 9.046875 -8.03125 C 9.046875 -7.957031 9.046875 -7.898438 9.046875 -7.859375 L 9.046875 -1.859375 C 9.046875 -1.640625 9.039062 -1.382812 9.03125 -1.09375 C 9.019531 -0.800781 9.003906 -0.503906 8.984375 -0.203125 C 8.960938 0.0859375 8.941406 0.363281 8.921875 0.625 C 8.898438 0.882812 8.875 1.09375 8.84375 1.25 L 8.125 1.359375 C 8.113281 1.242188 8.097656 1.085938 8.078125 0.890625 C 8.066406 0.691406 8.054688 0.484375 8.046875 0.265625 C 8.035156 0.046875 8.023438 -0.175781 8.015625 -0.40625 C 8.015625 -0.644531 8.015625 -0.867188 8.015625 -1.078125 L 8.015625 -7.890625 C 8.015625 -8.109375 7.90625 -8.285156 7.6875 -8.421875 C 7.476562 -8.566406 7.132812 -8.695312 6.65625 -8.8125 Z M 6.859375 -9.21875 "/></g></g></g><g fill="#ffbd59" fill-opacity="1"><g transform="translate(283.33059, 87.412897)"><g><path d="M 7.296875 -7.890625 C 7.296875 -8.109375 7.191406 -8.285156 6.984375 -8.421875 C 6.773438 -8.566406 6.429688 -8.695312 5.953125 -8.8125 L 6.125 -9.21875 C 6.300781 -9.195312 6.492188 -9.171875 6.703125 -9.140625 C 6.921875 -9.109375 7.132812 -9.070312 7.34375 -9.03125 C 7.550781 -8.988281 7.75 -8.945312 7.9375 -8.90625 C 8.125 -8.875 8.285156 -8.847656 8.421875 -8.828125 C 8.410156 -8.765625 8.394531 -8.6875 8.375 -8.59375 C 8.363281 -8.5 8.351562 -8.398438 8.34375 -8.296875 C 8.332031 -8.203125 8.320312 -8.113281 8.3125 -8.03125 C 8.3125 -7.957031 8.3125 -7.898438 8.3125 -7.859375 L 8.3125 -4.859375 C 8.625 -4.878906 8.976562 -4.910156 9.375 -4.953125 C 9.78125 -5.003906 10.148438 -5.054688 10.484375 -5.109375 L 10.375 -4.234375 C 10.238281 -4.242188 10.082031 -4.25 9.90625 -4.25 C 9.738281 -4.25 9.5625 -4.25 9.375 -4.25 C 9.1875 -4.25 9 -4.25 8.8125 -4.25 C 8.625 -4.25 8.457031 -4.25 8.3125 -4.25 L 8.3125 -1.859375 C 8.3125 -1.640625 8.304688 -1.382812 8.296875 -1.09375 C 8.285156 -0.800781 8.273438 -0.503906 8.265625 -0.203125 C 8.253906 0.0859375 8.234375 0.363281 8.203125 0.625 C 8.179688 0.882812 8.160156 1.09375 8.140625 1.25 L 7.390625 1.359375 C 7.367188 1.242188 7.351562 1.085938 7.34375 0.890625 C 7.332031 0.691406 7.320312 0.484375 7.3125 0.265625 C 7.300781 0.046875 7.296875 -0.175781 7.296875 -0.40625 C 7.296875 -0.644531 7.296875 -0.867188 7.296875 -1.078125 L 7.296875 -3.15625 C 6.960938 -3.019531 6.585938 -2.882812 6.171875 -2.75 C 5.753906 -2.613281 5.328125 -2.484375 4.890625 -2.359375 C 4.460938 -2.234375 4.039062 -2.125 3.625 -2.03125 C 3.21875 -1.9375 2.851562 -1.863281 2.53125 -1.8125 C 2.144531 -1.757812 1.867188 -1.804688 1.703125 -1.953125 C 1.546875 -2.097656 1.46875 -2.347656 1.46875 -2.703125 L 1.46875 -5.84375 C 1.46875 -5.976562 1.457031 -6.09375 1.4375 -6.1875 C 1.414062 -6.289062 1.367188 -6.375 1.296875 -6.4375 C 1.234375 -6.507812 1.140625 -6.570312 1.015625 -6.625 C 0.890625 -6.675781 0.722656 -6.734375 0.515625 -6.796875 L 0.6875 -7.1875 C 1.09375 -7.125 1.53125 -7.082031 2 -7.0625 C 2.46875 -7.050781 2.9375 -7.050781 3.40625 -7.0625 C 3.875 -7.082031 4.328125 -7.113281 4.765625 -7.15625 C 5.210938 -7.207031 5.617188 -7.265625 5.984375 -7.328125 L 5.828125 -6.5 C 5.148438 -6.53125 4.53125 -6.535156 3.96875 -6.515625 C 3.40625 -6.503906 2.910156 -6.484375 2.484375 -6.453125 L 2.484375 -2.921875 C 2.484375 -2.796875 2.503906 -2.707031 2.546875 -2.65625 C 2.597656 -2.613281 2.664062 -2.597656 2.75 -2.609375 C 3 -2.617188 3.3125 -2.660156 3.6875 -2.734375 C 4.0625 -2.804688 4.460938 -2.890625 4.890625 -2.984375 C 5.316406 -3.078125 5.738281 -3.175781 6.15625 -3.28125 C 6.582031 -3.394531 6.960938 -3.507812 7.296875 -3.625 Z M 7.296875 -7.890625 "/></g></g></g><path fill="#7acbcd" d="M 15.980469 79.980469 L 2.375 79.980469 C 1.171875 79.980469 0.183594 78.992188 0.183594 77.792969 L 0.183594 18.082031 C 0.183594 16.878906 1.171875 15.894531 2.375 15.894531 L 15.980469 15.894531 C 17.179688 15.894531 18.167969 16.878906 18.167969 18.082031 L 18.167969 77.792969 C 18.167969 78.992188 17.179688 79.980469 15.980469 79.980469 Z M 15.980469 79.980469 " fill-opacity="1" fill-rule="nonzero"/><g clip-path="url(#dc62308bca)"><path fill="#7acbcd" d="M 79.542969 84.347656 L 79.542969 88.375 C 79.542969 89.058594 78.984375 89.574219 78.339844 89.574219 L 1.386719 89.574219 C 0.699219 89.574219 0.183594 89.015625 0.183594 88.375 L 0.183594 84.347656 C 0.183594 83.664062 0.742188 83.148438 1.386719 83.148438 L 78.339844 83.148438 C 79.027344 83.148438 79.542969 83.707031 79.542969 84.347656 Z M 79.542969 84.347656 " fill-opacity="1" fill-rule="nonzero"/></g><path fill="#ffbd59" d="M 38.941406 79.980469 L 25.335938 79.980469 C 24.132812 79.980469 23.144531 78.992188 23.144531 77.792969 L 23.144531 18.082031 C 23.144531 16.878906 24.132812 15.894531 25.335938 15.894531 L 38.941406 15.894531 C 40.144531 15.894531 41.128906 16.878906 41.128906 18.082031 L 41.128906 77.792969 C 41.085938 78.992188 40.144531 79.980469 38.941406 79.980469 Z M 38.941406 79.980469 " fill-opacity="1" fill-rule="nonzero"/><g clip-path="url(#4a98ded9c5)"><path fill="#ffbd59" d="M 78 76.039062 L 64.949219 79.851562 C 63.792969 80.191406 62.589844 79.550781 62.246094 78.394531 L 45.335938 21.121094 C 44.992188 19.964844 45.636719 18.765625 46.796875 18.421875 L 59.84375 14.566406 C 61 14.226562 62.203125 14.867188 62.546875 16.023438 L 79.457031 73.339844 C 79.800781 74.496094 79.15625 75.695312 78 76.039062 Z M 78 76.039062 " fill-opacity="1" fill-rule="nonzero"/></g></svg>